<svg xmlns="http://www.w3.org/2000/svg" xmlns:xlink="http://www.w3.org/1999/xlink" version="1.1" x="0px" y="0px" viewBox="0 0 512 640" enable-background="new 0 0 512 512" xml:space="preserve"><g><path d="M437.337,250.66c-5.906,0-10.688,4.773-10.688,10.665c0,5.89,4.781,10.663,10.688,10.663   c5.874,0,10.655-4.773,10.655-10.663C447.992,255.434,443.211,250.66,437.337,250.66z"/><path d="M53.344,271.988c5.891,0,10.663-4.773,10.663-10.663c0-5.892-4.772-10.665-10.663-10.665s-10.672,4.773-10.672,10.665   C42.672,267.215,47.453,271.988,53.344,271.988z"/><path d="M213.337,346.681c5.891,0,10.664-4.781,10.664-10.672s-4.773-10.671-10.664-10.671c-5.89,0-10.671,4.78-10.671,10.671   S207.447,346.681,213.337,346.681z"/><path d="M256,346.681c5.891,0,10.664-4.781,10.664-10.672s-4.773-10.671-10.664-10.671s-10.664,4.78-10.664,10.671   S250.109,346.681,256,346.681z"/><path d="M298.654,346.681c5.906,0,10.688-4.781,10.688-10.672s-4.781-10.671-10.688-10.671c-5.875,0-10.655,4.78-10.655,10.671   S292.779,346.681,298.654,346.681z"/><path d="M415.994,399.991c5.891,0,10.655-4.781,10.655-10.672s-4.765-10.672-10.655-10.672s-10.656,4.781-10.656,10.672   S410.104,399.991,415.994,399.991z"/><path d="M95.139,378.647c-5.891,0-10.663,4.781-10.663,10.672s4.772,10.672,10.663,10.672s10.664-4.781,10.664-10.672   S101.029,378.647,95.139,378.647z"/><path d="M501.334,122.666h-31.998V69.332V37.334c0-5.891-4.781-10.664-10.688-10.664H53.344c-5.891,0-10.672,4.773-10.672,10.664   v31.998v53.334H10.674c-5.891,0-10.664,4.773-10.664,10.664v341.314c0,5.904,4.773,10.67,10.664,10.67H181.12   c0.07,0,0.141,0.016,0.219,0.016h149.314c0.094,0,0.156-0.016,0.219-0.016h170.462c5.875,0,10.656-4.766,10.656-10.67V133.33   C511.99,127.439,507.209,122.666,501.334,122.666z M64.007,47.997h383.985v10.672H64.007V47.997z M64.007,79.996h383.985v42.67   h-21.343c0-5.891-4.765-10.671-10.655-10.671H394.65c-5.875,0-10.655,4.78-10.655,10.671h-31.999   c0-5.891-4.781-10.671-10.656-10.671c-5.905,0-10.687,4.78-10.687,10.671h-21.312c0-5.891-4.781-10.671-10.688-10.671   c-5.875,0-10.655,4.78-10.655,10.671h-21.335c0-5.891-4.773-10.671-10.664-10.671s-10.664,4.78-10.664,10.671h-21.335   c0-5.891-4.773-10.671-10.664-10.671c-5.89,0-10.671,4.78-10.671,10.671h-21.327c0-5.891-4.781-10.671-10.672-10.671   s-10.663,4.78-10.663,10.671h-31.999c0-5.891-4.773-10.671-10.664-10.671H96.006c-5.891,0-10.663,4.78-10.663,10.671H64.007V79.996   z M490.646,143.993v149.33H21.345v-149.33H490.646z M319.998,421.318h-32.78h-63.217h-31.999v-31.999v-74.653h127.996V421.318z    M277.343,442.645v21.344h-42.678v-21.344H277.343z M192.002,442.645h21.335v21.344h-21.335V442.645z M298.654,463.988v-21.344   h21.344v21.344H298.654z M21.345,463.988v-74.653V314.65h149.322v117.339v31.999H95.998H21.345z M490.646,463.988h-74.652H341.34   v-31.999v-42.654c0,41.17,33.5,74.653,74.654,74.653c41.17,0,74.652-33.499,74.652-74.669s-33.482-74.669-74.652-74.669   c-41.154,0-74.654,33.483-74.654,74.653V314.65h74.654h74.652v74.669V463.988z M362.652,389.319   c0-29.404,23.937-53.326,53.342-53.326c29.404,0,53.342,23.922,53.342,53.326c0,29.405-23.938,53.325-53.342,53.325   C386.589,442.645,362.652,418.725,362.652,389.319z"/><path d="M53.344,229.326H373.34c5.874,0,10.655-4.773,10.655-10.664v-42.67c0-5.891-4.781-10.664-10.655-10.664H53.344   c-5.891,0-10.672,4.773-10.672,10.664v42.67C42.672,224.553,47.453,229.326,53.344,229.326z M64.007,186.664h298.646v21.326H256   c0-5.89-4.773-10.663-10.664-10.663s-10.671,4.773-10.671,10.663H64.007V186.664z"/><path d="M437.337,229.326c17.624,0,31.999-14.352,31.999-31.999s-14.375-31.999-31.999-31.999   c-17.655,0-31.999,14.352-31.999,31.999S419.682,229.326,437.337,229.326z M437.337,186.664c5.874,0,10.655,4.78,10.655,10.663   s-4.781,10.663-10.655,10.663c-5.891,0-10.688-4.78-10.688-10.663S431.446,186.664,437.337,186.664z"/><path d="M170.644,389.335c0-41.17-33.482-74.653-74.646-74.653c-41.17,0-74.653,33.483-74.653,74.653   c0,41.154,33.483,74.653,74.653,74.653C137.161,463.988,170.644,430.489,170.644,389.335z M95.998,442.645   c-29.405,0-53.326-23.904-53.326-53.31c0-29.404,23.921-53.326,53.326-53.326c29.397,0,53.318,23.922,53.318,53.326   C149.316,418.74,125.396,442.645,95.998,442.645z"/><path d="M319.217,389.319c0-17.64-14.344-31.998-31.999-31.998c-15.944,0-29.21,11.733-31.601,27.045   c-2.391-15.312-15.656-27.045-31.616-27.045c-17.647,0-31.999,14.358-31.999,31.998c0,17.641,14.352,31.999,31.999,31.999   c15.96,0,29.226-11.733,31.616-27.046c2.391,15.313,15.656,27.046,31.601,27.046C304.873,421.318,319.217,406.96,319.217,389.319z    M224.001,399.991c-5.883,0-10.664-4.781-10.664-10.672s4.781-10.672,10.664-10.672s10.664,4.781,10.664,10.672   S229.884,399.991,224.001,399.991z M287.218,399.991c-5.875,0-10.656-4.781-10.656-10.672s4.781-10.672,10.656-10.672   c5.89,0,10.687,4.781,10.687,10.672S293.107,399.991,287.218,399.991z"/><path d="M128.005,250.66H85.343c-5.891,0-10.672,4.773-10.672,10.665c0,5.89,4.781,10.663,10.672,10.663h42.662   c5.891,0,10.663-4.773,10.663-10.663C138.668,255.434,133.896,250.66,128.005,250.66z"/><path d="M330.653,250.66H160.004c-5.891,0-10.664,4.773-10.664,10.665c0,5.89,4.773,10.663,10.664,10.663h170.649   c5.906,0,10.687-4.773,10.687-10.663C341.34,255.434,336.56,250.66,330.653,250.66z"/><path d="M351.996,261.325c0,5.89,4.781,10.663,10.656,10.663h42.686c5.875,0,10.656-4.773,10.656-10.663   c0-5.892-4.781-10.665-10.656-10.665h-42.686C356.777,250.66,351.996,255.434,351.996,261.325z"/></g><text x="0" y="527" fill="#000000" font-size="5px" font-weight="bold" font-family="'Helvetica Neue', Helvetica, Arial-Unicode, Arial, Sans-serif">Created by lastspark</text><text x="0" y="532" fill="#000000" font-size="5px" font-weight="bold" font-family="'Helvetica Neue', Helvetica, Arial-Unicode, Arial, Sans-serif">from the Noun Project</text></svg>