<svg xmlns="http://www.w3.org/2000/svg" xmlns:xlink="http://www.w3.org/1999/xlink" version="1.1" x="0px" y="0px" viewBox="0 0 32 40" enable-background="new 0 0 32 32" xml:space="preserve"><g display="none"><path display="inline" d="M30,10.367V4c0-1.105-0.895-2-2-2H4C2.895,2,2,2.895,2,4v24c0,1.104,0.895,2,2,2h24c1.105,0,2-0.896,2-2   v-6.367c-2.324-0.828-4-3.025-4-5.633C26,13.391,27.676,11.193,30,10.367z M20,10v2v8c0,1.104-1.344,2-3,2c-1.656,0-3-0.896-3-2   c0-1.105,1.344-2,3-2c0.352,0,0.686,0.047,1,0.123V12.4L12,13.6V22c0,1.104-1.344,2-3,2c-1.656,0-3-0.896-3-2c0-1.105,1.344-2,3-2   c0.352,0,0.686,0.047,1,0.123V14v-2v-2l10-2V10z"/></g><g display="none"><path display="inline" fill-rule="evenodd" clip-rule="evenodd" d="M21.906,13c0-4.418-4.883-8-10.906-8   C4.977,5,0.094,8.582,0.094,13c0,2.271,1.297,4.317,3.369,5.774L1.906,25l5.822-4.367C8.762,20.871,9.859,21,11,21   C17.023,21,21.906,17.418,21.906,13z M31.906,17c0-4.167-4.383-7.587-9.976-7.963c1.246,1.424,1.976,3.128,1.976,4.963   c0,4.579-4.527,8.352-10.383,8.918C15.477,24.207,18.061,25,20.906,25c0.879,0,1.73-0.083,2.551-0.225L27.906,27l-0.842-3.37   C29.984,22.191,31.906,19.759,31.906,17z"/></g><g display="none"><path display="inline" fill-rule="evenodd" clip-rule="evenodd" d="M24,0H8L4,16h24L24,0z M18,28.105V18h-4v10.105   C8.021,28.715,8,32,8,32h16C24,32,23.979,28.715,18,28.105z M22,21c0,0.553,0.447,1,1,1c0.553,0,1-0.447,1-1v-3h-2V21z"/></g><g><path fill-rule="evenodd" clip-rule="evenodd" d="M27,1L13,3v18.307C12.371,21.119,11.705,21,11,21c-3.314,0-6,2.238-6,5   s2.685,5,6,5c3.314,0,6-2.238,6-5V8.428L27,7V1z"/></g><text x="0" y="47" fill="#000000" font-size="5px" font-weight="bold" font-family="'Helvetica Neue', Helvetica, Arial-Unicode, Arial, Sans-serif">Created by Noe Araujo</text><text x="0" y="52" fill="#000000" font-size="5px" font-weight="bold" font-family="'Helvetica Neue', Helvetica, Arial-Unicode, Arial, Sans-serif">from the Noun Project</text></svg>