<svg xmlns="http://www.w3.org/2000/svg" xmlns:xlink="http://www.w3.org/1999/xlink" version="1.1" x="0px" y="0px" viewBox="0 0 32 40" enable-background="new 0 0 32 32" xml:space="preserve"><g display="none"><path display="inline" fill-rule="evenodd" clip-rule="evenodd" d="M17,27c6.074,0,11-4.926,11-11c0-6.076-4.926-11-11-11   S6,9.924,6,16C6,22.074,10.926,27,17,27z M17,13c1.656,0,3,1.342,3,3c0,1.656-1.344,3-3,3c-1.656,0-3-1.344-3-3   C14,14.342,15.344,13,17,13z M30,1H2C0.895,1,0,1.895,0,3v26c0,1.104,0.895,2,2,2h28c1.105,0,2-0.896,2-2V3C32,1.895,31.105,1,30,1   z M30,29H4V3h26V29z M17,17c0.551,0,1-0.447,1-1c0-0.553-0.449-1-1-1s-1,0.447-1,1C16,16.553,16.449,17,17,17z"/></g><g display="none"><path display="inline" d="M30,18v-2h2v-2L16,0L0,14v2h2v2h2v8H2v2H0v4h32v-4h-2v-2h-2v-8H30z M14,26H8v-8h6V26z M24,26h-6v-8h6V26z   "/></g><g display="none"><path display="inline" fill-rule="evenodd" clip-rule="evenodd" d="M4,30c0,1.105,0.895,2,2,2h20c1.105,0,2-0.895,2-2V8H4V30z    M16,12c4.418,0,8,3.582,8,8c0,4.418-3.582,8-8,8c-4.418,0-8-3.582-8-8C8,15.582,11.582,12,16,12z M26,0H6C4.895,0,4,0.895,4,2v4   h24V2C28,0.895,27.105,0,26,0z M16,26c3.315,0,6-2.685,6-6c0-3.314-2.685-6-6-6c-3.314,0-6,2.686-6,6C10,23.315,12.686,26,16,26z    M14,18c0,1.105,0.895,2,2,2c1.105,0,2-0.895,2-2c0,1.105,0.895,2,2,2c0,2.209-1.791,4-4,4c-2.209,0-4-1.791-4-4   C13.106,20,14,19.105,14,18z"/></g><g><path d="M8.791,4v6.316v12.082c-0.275-0.049-0.555-0.084-0.842-0.084c-2.674,0-4.844,2.166-4.844,4.84   C3.105,29.83,5.275,32,7.949,32c2.674,0,4.842-2.17,4.842-4.846V9.519l12.102-2.406v11.709c-0.274-0.051-0.553-0.084-0.842-0.084   c-2.674,0-4.844,2.166-4.844,4.84c0,2.674,2.17,4.846,4.844,4.846c2.674,0,4.844-2.172,4.844-4.846V6.316V0L8.791,4z"/></g><text x="0" y="47" fill="#000000" font-size="5px" font-weight="bold" font-family="'Helvetica Neue', Helvetica, Arial-Unicode, Arial, Sans-serif">Created by Noe Araujo</text><text x="0" y="52" fill="#000000" font-size="5px" font-weight="bold" font-family="'Helvetica Neue', Helvetica, Arial-Unicode, Arial, Sans-serif">from the Noun Project</text></svg>