<svg xmlns="http://www.w3.org/2000/svg" xmlns:xlink="http://www.w3.org/1999/xlink" viewBox="0 0 100 125" version="1.1" x="0px" y="0px"><title>magn_gls-4 copy 2</title><desc>Created with Sketch.</desc><g stroke="none" stroke-width="1" fill="none" fill-rule="evenodd"><path d="M95,29.99 L95,75.933 C95,79.948 91.745,83.203 87.73,83.203 L18.061,83.203 C17.84,83.203 17.629,83.197 17.427,83.185 C15.308,83.056 15.454,79.857 17.577,79.85 L87.728,79.628 C89.77,79.628 91.425,77.973 91.425,75.931 L91.425,29.631 C91.425,27.374 94.828,27.194 94.982,29.445 C94.994,29.619 95,29.801 95,29.99 M46.2,54.589 L46.2,54.589 C38.6,54.589 31.577,57.056 27.415,61.192 L27.415,61.192 L24.581,58.338 C29.48,53.474 37.563,50.569 46.2,50.569 L46.2,50.569 C54.833,50.569 62.916,53.474 67.819,58.338 L64.985,61.192 L64.985,61.192 C60.819,57.058 53.796,54.589 46.2,54.589 M19.16,22.79 C19.16,21.927 19.86,21.226 20.724,21.226 L20.724,21.226 C21.588,21.226 22.288,21.927 22.288,22.79 C22.288,23.654 21.588,24.355 20.724,24.355 L20.724,24.355 C19.86,24.355 19.16,23.654 19.16,22.79 M13.872,22.79 C13.872,21.927 14.572,21.226 15.436,21.226 L15.436,21.226 C16.3,21.226 17,21.927 17,22.79 C17,23.654 16.3,24.355 15.436,24.355 L15.436,24.355 C14.572,24.355 13.872,23.654 13.872,22.79 M8.583,22.79 C8.583,21.927 9.284,21.226 10.148,21.226 L10.148,21.226 C11.011,21.226 11.712,21.927 11.712,22.79 C11.712,23.654 11.011,24.355 10.148,24.355 L10.148,24.355 C9.284,24.355 8.583,23.654 8.583,22.79 M38.457,37.676 C38.457,40.258 36.364,42.351 33.783,42.351 L33.783,42.351 C31.201,42.351 29.108,40.258 29.108,37.676 C29.108,35.095 31.201,33.002 33.783,33.002 L33.783,33.002 C36.364,33.002 38.457,35.095 38.457,37.676 M63.428,37.676 C63.428,40.258 61.335,42.351 58.754,42.351 L58.754,42.351 C56.172,42.351 54.08,40.258 54.08,37.676 C54.08,35.095 56.172,33.002 58.754,33.002 L58.754,33.002 C61.335,33.002 63.428,35.095 63.428,37.676 M87.375,71.232 L87.375,21.458 C87.375,19 85.375,17 82.917,17 L9.458,17 C7,17 5,19 5,21.458 L5,43.512 L5,71.232 C5,73.69 7,75.691 9.458,75.691 L82.917,75.691 C85.375,75.691 87.375,73.69 87.375,71.232" fill="#000000"/></g><text x="0" y="115" fill="#000000" font-size="5px" font-weight="bold" font-family="'Helvetica Neue', Helvetica, Arial-Unicode, Arial, Sans-serif">Created by Ben Iconator</text><text x="0" y="120" fill="#000000" font-size="5px" font-weight="bold" font-family="'Helvetica Neue', Helvetica, Arial-Unicode, Arial, Sans-serif">from the Noun Project</text></svg>