<svg xmlns="http://www.w3.org/2000/svg" xmlns:xlink="http://www.w3.org/1999/xlink" version="1.1" x="0px" y="0px" viewBox="0 0 100 125" enable-background="new 0 0 100 100" xml:space="preserve"><g><path d="M33.546,38.202c1.239-1.725,2.74-3.248,4.448-4.508L25.186,20.886c-1.237-1.236-3.241-1.236-4.478,0   c-1.236,1.237-1.236,3.241,0,4.478L33.546,38.202z"/><path d="M50,29.75c1.077,0,2.135,0.086,3.166,0.248V11.742c0-1.749-1.418-3.166-3.167-3.166s-3.166,1.417-3.166,3.166v18.256   C47.865,29.835,48.922,29.75,50,29.75z"/><path d="M29.75,50c0-1.077,0.086-2.134,0.248-3.166H11.742c-1.749,0-3.166,1.418-3.166,3.166c0,1.749,1.417,3.167,3.166,3.167   h18.256C29.835,52.135,29.75,51.076,29.75,50z"/><path d="M66.453,38.202l12.838-12.838c1.236-1.237,1.236-3.241,0-4.478c-1.235-1.235-3.24-1.236-4.478,0L62.006,33.694   C63.714,34.954,65.215,36.477,66.453,38.202z"/><path d="M33.694,62.006L20.708,74.99c-1.236,1.236-1.236,3.242,0,4.479c0.619,0.617,1.429,0.928,2.239,0.928   c0.81,0,1.621-0.311,2.239-0.928l13.016-13.016C36.477,65.215,34.954,63.715,33.694,62.006z"/><path d="M88.258,46.833H70.002c0.161,1.032,0.248,2.089,0.248,3.166c0,1.077-0.087,2.135-0.248,3.167h18.256   c1.748,0,3.166-1.418,3.166-3.167C91.424,48.251,90.006,46.833,88.258,46.833z"/><path d="M50,70.25c-1.078,0-2.135-0.086-3.167-0.248v18.256c0,1.748,1.417,3.166,3.166,3.166s3.167-1.418,3.167-3.166V70.002   C52.135,70.164,51.077,70.25,50,70.25z"/><path d="M66.307,62.006c-1.261,1.709-2.784,3.209-4.508,4.447l13.015,13.016c0.619,0.617,1.429,0.928,2.239,0.928   c0.81,0,1.62-0.311,2.238-0.928c1.236-1.236,1.236-3.242,0-4.479L66.307,62.006z"/></g><text x="0" y="115" fill="#000000" font-size="5px" font-weight="bold" font-family="'Helvetica Neue', Helvetica, Arial-Unicode, Arial, Sans-serif">Created by Bakunetsu Kaito</text><text x="0" y="120" fill="#000000" font-size="5px" font-weight="bold" font-family="'Helvetica Neue', Helvetica, Arial-Unicode, Arial, Sans-serif">from the Noun Project</text></svg>