<svg xmlns:x="http://ns.adobe.com/Extensibility/1.0/" xmlns:i="http://ns.adobe.com/AdobeIllustrator/10.0/" xmlns:graph="http://ns.adobe.com/Graphs/1.0/" xmlns="http://www.w3.org/2000/svg" xmlns:xlink="http://www.w3.org/1999/xlink" version="1.1" x="0px" y="0px" viewBox="0 0 64 80" enable-background="new 0 0 64 64" xml:space="preserve"><metadata><sfw xmlns="http://ns.adobe.com/SaveForWeb/1.0/"><slices/><sliceSourceBounds height="16384" width="16389" x="-8165" y="-8160" bottomLeftOrigin="true"/></sfw></metadata><g><path d="M54.997,36.202c0.036-0.499-0.303-0.948-0.793-1.051c-1.056-0.222-2.149-0.292-3.23-0.282   c-0.237-0.037-0.482-0.07-0.733-0.1c-0.225-0.214-0.481-0.411-0.769-0.59c-1.7-1.057-3.986-1.137-5.317-0.188   c-0.279,0.2-0.437,0.528-0.417,0.871c0,0.013,0.001,0.025,0.003,0.038c-0.074,0.011-0.147,0.029-0.218,0.057   c-0.703,0.138-1.236,0.313-1.499,0.518c-0.511,0.397-0.903,0.841-1.173,1.316c-0.798,0.224-1.603,0.476-2.382,0.767   c-0.367,0.097-0.731,0.2-1.092,0.31c-0.127-0.082-0.274-0.136-0.433-0.153c-0.456-0.044-0.876,0.213-1.039,0.629   c-1.145,0.392-2.257,0.819-3.348,1.239c-0.456,0.175-0.908,0.349-1.359,0.519c2.75-2.962,4.25-6.508,4.6-7.704   c2.059-2.614,5.742-6.777,7.422-7.473c1.619-0.671,3.965-1.645,4.502-3.924h1.115c0.553,0,1-0.448,1-1V6c0-0.552-0.447-1-1-1h-4   c-0.553,0-1,0.448-1,1v0.025C42.999,5.391,41.967,5,40.837,5c-0.553,0-1,0.448-1,1v8c0,0.552,0.447,1,1,1   c1.13,0,2.162-0.391,3-1.025V20c0,0.552,0.447,1,1,1h0.752c-0.442,0.817-1.488,1.395-3.135,2.076   c-2.238,0.927-5.96,5.283-7.617,7.321c-1.657-2.038-5.379-6.394-7.617-7.321c-1.646-0.682-2.691-1.259-3.135-2.076h0.752   c0.552,0,1-0.448,1-1v-6.025c0.838,0.634,1.87,1.025,3,1.025c0.552,0,1-0.448,1-1V6c0-0.552-0.448-1-1-1   c-1.13,0-2.162,0.391-3,1.025V6c0-0.552-0.448-1-1-1h-4c-0.552,0-1,0.448-1,1v14c0,0.552,0.448,1,1,1h1.115   c0.538,2.278,2.884,3.253,4.502,3.924c1.816,0.752,5.604,5.189,7.276,7.288c-0.662,1.683-3.19,7.306-7.927,9.482   c-0.741-0.138-1.513-0.363-2.223-0.727c0.729-0.855,1.079-2.006,1-3.354c-0.079-1.363-0.72-2.598-1.854-3.569   c-2.08-1.784-5.608-2.482-8.024-2.253c-1.525,0.146-3.831,0.366-4.614,2.754c-0.414,1.262-0.103,2.174,0.231,2.717   c0.69,1.125,2.121,1.851,4.373,2.218c0.355,0.704,0.879,1.326,1.558,1.832c0.921,1.712,2.318,3.14,5.143,3.246   c1.048,0.043,2.034-0.06,2.963-0.271c1.266,0.125,2.489,0.369,3.778,0.824c0.663,0.234,1.648,0.756,2.692,1.309   c2.906,1.537,6.201,3.282,8.416,2.363c0.301-0.124,0.522-0.388,0.594-0.705c0.071-0.318-0.017-0.651-0.236-0.893l-0.09-0.099   c-1.043-1.145-2.027-2.227-3.487-3.119l-0.111-0.069c-0.509-0.311-1.206-0.736-1.25-0.943c-0.002-0.009-0.042-0.226,0.394-0.857   c0.528-0.305,1.017-0.653,1.436-1.05c0.513,0.865,1.307,1.474,2.328,1.753c1.247,0.34,2.668,0.144,3.898-0.448   c1.164,1.007,2.586,1.823,3.801,2.316c-1.147,1.599-2.249,3.822-2.634,5.027C42.731,53.314,41.128,55,38.837,55h-11v-1   c0-0.553-0.448-1-1-1h-8c-0.552,0-1,0.447-1,1v1h-5c-0.552,0-1,0.447-1,1s0.448,1,1,1h5v1c0,0.553,0.448,1,1,1h8   c0.552,0,1-0.447,1-1v-1h11c4.819,0,6.425-5.04,6.953-6.696c0.481-1.511,2.095-4.414,3.149-5.428   c0.273-0.262,0.375-0.656,0.263-1.018c-0.113-0.362-0.42-0.629-0.794-0.69c-0.965-0.157-2.657-0.978-3.999-2.017   c0.216-0.221,0.412-0.458,0.583-0.711c0.256-0.379,0.444-0.773,0.566-1.179c0.269,0.03,0.538,0.062,0.809,0.093   c1.544,0.181,3.141,0.367,4.82,0.319c0.16-0.004,0.322-0.003,0.482,0c0.848,0.016,2.843,0.039,2.92-2.216   c0.005-0.134-0.005-0.301-0.05-0.486C54.798,36.807,54.974,36.526,54.997,36.202z M45.837,7h2v12h-2V7z M41.837,12.816V7.184   c1.161,0.415,2,1.514,2,2.816S42.998,12.401,41.837,12.816z M27.837,7.184v5.631c-1.162-0.414-2-1.514-2-2.815   S26.675,7.599,27.837,7.184z M21.837,7h2v12h-2V7z M16.892,37.732c-0.238-0.6-0.493-1.207-0.803-1.797   c-0.201-0.384-0.626-0.595-1.053-0.521c-0.427,0.072-0.758,0.411-0.821,0.84c-0.054,0.367-0.074,0.728-0.062,1.078   c-1.449-0.35-1.953-0.832-2.128-1.117c-0.106-0.173-0.225-0.469-0.035-1.048c0.338-1.032,1.185-1.223,2.904-1.387   c1.273-0.121,2.978,0.078,4.464,0.624c-0.338,0.451-0.626,1.166-0.564,2.275c0.021,0.377,0.065,0.741,0.132,1.093   C18.33,37.807,17.646,37.793,16.892,37.732z M17.804,39.944c-0.025-0.052-0.049-0.104-0.074-0.158   c0.679,0.022,1.3,0.002,1.863-0.059c0.143,0.276,0.303,0.54,0.481,0.791C19.309,40.551,18.498,40.352,17.804,39.944z    M21.256,37.128c-0.101,0.09-0.226,0.17-0.373,0.242c-0.045-0.253-0.077-0.52-0.093-0.801c-0.038-0.671,0.133-0.965,0.228-1.025   c0.016-0.011,0.035-0.015,0.053-0.015c0.044,0,0.091,0.021,0.114,0.033c0.17,0.09,0.356,0.346,0.371,0.798   C21.567,36.702,21.478,36.932,21.256,37.128z M21.987,39.747c-0.138-0.159-0.266-0.329-0.384-0.511   c0.354-0.155,0.662-0.343,0.922-0.562C22.435,39.103,22.255,39.461,21.987,39.747z M34.868,45.605l0.11,0.067   c0.55,0.337,1.024,0.712,1.471,1.121c-1.487-0.449-3.313-1.415-4.687-2.143c-0.637-0.337-1.226-0.648-1.761-0.907   c0.824-0.122,1.748-0.322,2.666-0.616c0.008,0.08,0.02,0.161,0.037,0.243C32.927,44.42,33.827,44.97,34.868,45.605z M39.346,40.872   c-0.564-0.155-0.975-0.492-1.226-1.008c0.324-0.145,0.66-0.281,1.003-0.41c0.03-0.008,0.06-0.016,0.089-0.023   c0.438-0.111,0.871-0.195,1.301-0.255c0.005,0.021,0.011,0.043,0.016,0.063c0.135,0.527,0.391,1.042,0.732,1.534   C40.607,40.979,39.924,41.028,39.346,40.872z M43.335,39.32c-0.103,0.151-0.222,0.295-0.354,0.43   c-0.174-0.233-0.313-0.468-0.411-0.7c0.304,0.002,0.607,0.013,0.911,0.029C43.438,39.16,43.389,39.24,43.335,39.32z M25.837,57h-6   v-2h6V57z M52.57,37.623c-0.105,0.044-0.376,0.053-0.621,0.053c-0.219,0.001-0.387-0.005-0.567-0.005c-0.02,0-0.04,0-0.061,0   c0.021-0.154,0.029-0.308,0.028-0.458c0.295,0,0.585,0,0.873-0.007c0.164,0.074,0.289,0.156,0.365,0.247   C52.58,37.558,52.566,37.612,52.57,37.623z"/></g><text x="0" y="79" fill="#000000" font-size="5px" font-weight="bold" font-family="'Helvetica Neue', Helvetica, Arial-Unicode, Arial, Sans-serif">Created by Ralf Schmitzer</text><text x="0" y="84" fill="#000000" font-size="5px" font-weight="bold" font-family="'Helvetica Neue', Helvetica, Arial-Unicode, Arial, Sans-serif">from the Noun Project</text></svg>