<svg xmlns="http://www.w3.org/2000/svg" xmlns:xlink="http://www.w3.org/1999/xlink" version="1.1" x="0px" y="0px" viewBox="0 0 100 125"><path d="M388,419 c149,21,275,21,424,0 c0,85,-85,169,-212,169 c-126,0,-212,-84,-212,-169 Z M421,682 c53,0,94,43,94,97 c0,51,-41,94,-94,94 c-54,0,-96,-43,-96,-94 c0,-54,42,-97,96,-97 Z M780,682 c53,0,95,43,95,97 c0,51,-42,94,-95,94 c-53,0,-95,-43,-95,-94 c0,-54,42,-97,95,-97 Z M-20,100 l1240,0 c54,0,80,26,80,80 l0,940 c0,54,-26,80,-80,80 l-1240,0 c-54,0,-80,-26,-80,-80 l0,-940 c0,-54,26,-80,80,-80 Z M0,200 l0,100 l100,0 l0,-100 Z M0,400 l0,100 l100,0 l0,-100 Z M0,600 l0,100 l100,0 l0,-100 Z M0,800 l0,100 l100,0 l0,-100 Z M0,1000 l0,100 l100,0 l0,-100 Z M200,200 l0,900 l800,0 l0,-900 Z M1100,200 l0,100 l100,0 l0,-100 Z M1100,400 l0,100 l100,0 l0,-100 Z M1100,600 l0,100 l100,0 l0,-100 Z M1100,800 l0,100 l100,0 l0,-100 Z M1100,1000 l0,100 l100,0 l0,-100 Z M1100,1000 " fill="#000000" stroke="none" stroke-dasharray="none" stroke-linecap="inherit" stroke-linejoin="inherit" stroke-width="1" transform="matrix(0.05,0.0,0.0,-0.05,20.0,80.0)"/><text x="0" y="115" fill="#000000" font-size="5px" font-weight="bold" font-family="'Helvetica Neue', Helvetica, Arial-Unicode, Arial, Sans-serif">Created by Thomas Helbig</text><text x="0" y="120" fill="#000000" font-size="5px" font-weight="bold" font-family="'Helvetica Neue', Helvetica, Arial-Unicode, Arial, Sans-serif">from the Noun Project</text></svg>