<svg xmlns="http://www.w3.org/2000/svg" xmlns:xlink="http://www.w3.org/1999/xlink" version="1.1" x="0px" y="0px" viewBox="0 0 24 30" style="enable-background:new 0 0 24 24;" xml:space="preserve"><g><g><path d="M12,3c0.276,0,0.5-0.224,0.5-0.5S12.276,2,12,2C6.486,2,2,6.486,2,12c0,0.276,0.224,0.5,0.5,0.5S3,12.276,3,12    C3,7.038,7.038,3,12,3z M11.5,17.5c0,0.276,0.224,0.5,0.5,0.5c3.309,0,6-2.691,6-6c0-0.276-0.224-0.5-0.5-0.5S17,11.724,17,12    c0,2.757-2.243,5-5,5C11.724,17,11.5,17.224,11.5,17.5z M12,19c-0.276,0-0.5,0.224-0.5,0.5S11.724,20,12,20c4.411,0,8-3.589,8-8    c0-0.276-0.224-0.5-0.5-0.5S19,11.724,19,12C19,15.86,15.86,19,12,19z M21.5,11.5c-0.276,0-0.5,0.224-0.5,0.5c0,4.962-4.038,9-9,9    c-0.276,0-0.5,0.224-0.5,0.5S11.724,22,12,22c5.514,0,10-4.486,10-10C22,11.724,21.776,11.5,21.5,11.5z M12,5    c0.276,0,0.5-0.224,0.5-0.5S12.276,4,12,4c-4.411,0-8,3.589-8,8c0,0.276,0.224,0.5,0.5,0.5S5,12.276,5,12C5,8.14,8.14,5,12,5z     M12.5,6.5C12.5,6.224,12.276,6,12,6c-3.309,0-6,2.691-6,6c0,0.276,0.224,0.5,0.5,0.5S7,12.276,7,12c0-2.757,2.243-5,5-5    C12.276,7,12.5,6.776,12.5,6.5z M12,0C5.383,0,0,5.383,0,12s5.383,12,12,12s12-5.383,12-12S18.617,0,12,0z M12,23    C5.935,23,1,18.065,1,12S5.935,1,12,1s11,4.935,11,11S18.065,23,12,23z M15,12c0-1.654-1.346-3-3-3s-3,1.346-3,3s1.346,3,3,3    S15,13.654,15,12z M10,12c0-1.103,0.897-2,2-2s2,0.897,2,2s-0.897,2-2,2S10,13.103,10,12z M13,12c0-0.552-0.448-1-1-1    s-1,0.448-1,1s0.448,1,1,1S13,12.552,13,12z"/></g></g><text x="0" y="39" fill="#000000" font-size="5px" font-weight="bold" font-family="'Helvetica Neue', Helvetica, Arial-Unicode, Arial, Sans-serif">Created by icon 54</text><text x="0" y="44" fill="#000000" font-size="5px" font-weight="bold" font-family="'Helvetica Neue', Helvetica, Arial-Unicode, Arial, Sans-serif">from the Noun Project</text></svg>