<?xml version="1.0" encoding="utf-8"?>
<!-- Generator: Adobe Illustrator 19.0.0, SVG Export Plug-In . SVG Version: 6.00 Build 0)  -->
<svg version="1.1" id="Calque_1" xmlns="http://www.w3.org/2000/svg" xmlns:xlink="http://www.w3.org/1999/xlink" x="0px" y="0px"
	 viewBox="0 0 600 400" style="enable-background:new 0 0 600 400;" xml:space="preserve">
<g id="fireworks">
	<g id="XMLID_272_">
		<path id="XMLID_273_" style="fill:#999999;" d="M147.6,110.5c0.6-0.9,1.5-1.8,2.4-2.4l-6.8-6.8c-0.6-0.6-1.8-0.6-2.4,0
			c-0.6,0.6-0.6,1.8,0,2.4L147.6,110.5z"/>
		<path id="XMLID_274_" style="fill:#999999;" d="M156.4,106c0.6,0,0.6,0,1.9,0.1v-9.7c0-0.9-1-1.6-1.9-1.6c-0.9,0-1.9,0.8-1.9,1.6
			v9.7C155.8,106.1,155.8,106,156.4,106z"/>
		<path id="XMLID_275_" style="fill:#999999;" d="M145.5,116.8c0-0.6,0-1.3,0.1-1.3h-9.7c-0.9,0-1.6,0.4-1.6,1.3
			c0,0.9,0.8,1.3,1.6,1.3h9.7C145.5,118.1,145.5,117.5,145.5,116.8z"/>
		<path id="XMLID_276_" style="fill:#999999;" d="M165.1,110.5l6.8-6.8c0.6-0.6,0.6-1.8,0-2.4c-0.6-0.6-1.8-0.6-2.4,0l-6.8,6.8
			C163.6,108.7,164.5,109.6,165.1,110.5z"/>
		<path id="XMLID_277_" style="fill:#999999;" d="M147.7,123.2l-7,7c-0.6,0.6-0.6,1.8,0,2.4c0.4,0.4,0.8,0.5,1.1,0.5
			s0.9-0.1,1.1-0.5l7-7C149.1,124.9,148.3,124.2,147.7,123.2z"/>
		<path id="XMLID_278_" style="fill:#999999;" d="M176.8,115.6H167c0.1,0,0.1,0.6,0.1,1.3s0,1.3-0.1,1.3h9.7c0.9,0,1.6-0.4,1.6-1.3
			C178.4,115.9,177.7,115.6,176.8,115.6z"/>
		<path id="XMLID_279_" style="fill:#999999;" d="M156.4,127.6c-0.6,0-0.6,0-1.9-0.1v9.7c0,0.9,1,1.6,1.9,1.6c0.9,0,1.9-0.8,1.9-1.6
			v-9.7C157.1,127.6,157.1,127.6,156.4,127.6z"/>
		<path id="XMLID_280_" style="fill:#999999;" d="M165,123.2c-0.6,0.9-1.5,1.8-2.4,2.4l7,7c0.4,0.4,0.8,0.5,1.1,0.5
			c0.4,0,0.9-0.1,1.1-0.5c0.6-0.6,0.6-1.8,0-2.4L165,123.2z"/>
	</g>
	<g id="XMLID_281_">
		<path id="XMLID_282_" style="fill:#999999;" d="M376.7,118.1c0.8-1,1.6-2,2.8-2.8l-7.8-7.8c-0.8-0.8-2-0.8-2.8,0
			c-0.8,0.8-0.8,2,0,2.8L376.7,118.1z"/>
		<path id="XMLID_283_" style="fill:#999999;" d="M386.5,112.9c0.6,0,1.9,0,1.9,0.1v-11.3c0-1-0.9-1.9-1.9-1.9c-1,0-1.9,0.9-1.9,1.9
			V113C385.9,113,385.9,112.9,386.5,112.9z"/>
		<path id="XMLID_284_" style="fill:#999999;" d="M374.4,125.1c0-0.6,0-0.6,0.1-1.9h-11.3c-1,0-1.9,0.9-1.9,1.9c0,1,0.9,1.9,1.9,1.9
			h11.3C374.4,126.9,374.4,125.7,374.4,125.1z"/>
		<path id="XMLID_285_" style="fill:#999999;" d="M396.9,118.1l7.8-7.8c0.8-0.8,0.8-2,0-2.8c-0.8-0.8-2-0.8-2.8,0l-7.8,7.8
			C395.2,116.2,396.1,117.1,396.9,118.1z"/>
		<path id="XMLID_286_" style="fill:#999999;" d="M376.8,132.8l-8,8c-0.8,0.8-0.8,2,0,2.8c0.4,0.4,0.9,0.6,1.4,0.6
			c0.5,0,1-0.3,1.4-0.6l8-8C378.4,134.7,377.5,133.8,376.8,132.8z"/>
		<path id="XMLID_287_" style="fill:#999999;" d="M410.3,123.2H399c0.1,1.3,0.1,1.3,0.1,1.9s0,1.9-0.1,1.9h11.3c1,0,1.9-0.9,1.9-1.9
			C412.2,124,411.3,123.2,410.3,123.2z"/>
		<path id="XMLID_288_" style="fill:#999999;" d="M386.5,137.8c-0.6,0-0.6,0-1.9-0.1v11.3c0,1,0.9,1.9,1.9,1.9c1,0,1.9-0.9,1.9-1.9
			v-11.3C388.4,137.7,387.2,137.8,386.5,137.8z"/>
		<path id="XMLID_289_" style="fill:#999999;" d="M396.8,132.8c-0.8,1-1.8,2-2.8,2.8l8,8c0.4,0.4,0.9,0.6,1.4,0.6s1-0.3,1.4-0.6
			c0.8-0.8,0.8-2,0-2.8L396.8,132.8z"/>
	</g>
	<g id="XMLID_290_">
		<path id="XMLID_291_" style="fill:#B3B3B3;" d="M87.8,162.5c0.4-0.6,0.9-1,1.5-1.5l-4.2-4.2c-0.4-0.4-1-0.4-1.5,0
			c-0.4,0.4-0.4,1,0,1.5L87.8,162.5z"/>
		<path id="XMLID_292_" style="fill:#B3B3B3;" d="M93.2,159.7c0.4,0,0.6,0,0.6,0.1v-6.1c0-0.6,0-1-0.6-1s-0.6,0.5-0.6,1v6.1
			C92.6,159.8,92.8,159.7,93.2,159.7z"/>
		<path id="XMLID_293_" style="fill:#B3B3B3;" d="M86.5,166.1c0-0.4,0,0,0.1-1.3h-6.1c-0.6,0-1,0.6-1,1.3c0,0.6,0.5,1.3,1,1.3h6.1
			C86.6,167.4,86.5,166.5,86.5,166.1z"/>
		<path id="XMLID_294_" style="fill:#B3B3B3;" d="M98.6,162.5l4.3-4.3c0.4-0.4,0.4-1,0-1.5c-0.4-0.4-1-0.4-1.5,0l-4.2,4.2
			C97.8,161.5,98.3,162,98.6,162.5z"/>
		<path id="XMLID_295_" style="fill:#B3B3B3;" d="M87.9,170.4l-4.3,4.3c-0.4,0.4-0.4,1,0,1.5c0.3,0.3,0.5,0.3,0.8,0.3
			s0.5-0.1,0.8-0.3l4.3-4.3C88.8,171.5,88.3,170.9,87.9,170.4z"/>
		<path id="XMLID_296_" style="fill:#B3B3B3;" d="M105.9,164.9h-6.1c0,1.3,0.1,0.9,0.1,1.3c0,0.4,0,1.3-0.1,1.3h6.1
			c0.6,0,1-0.6,1-1.3C106.9,165.5,106.5,164.9,105.9,164.9z"/>
		<path id="XMLID_297_" style="fill:#B3B3B3;" d="M93.2,173.1c-0.4,0-0.6,0-0.6-0.1v6.1c0,0.6,0,1,0.6,1s0.6-0.5,0.6-1V173
			C93.8,173.1,93.6,173.1,93.2,173.1z"/>
		<path id="XMLID_298_" style="fill:#B3B3B3;" d="M98.6,170.4c-0.4,0.5-0.9,1-1.5,1.5l4.3,4.3c0.3,0.3,0.5,0.3,0.8,0.3
			c0.3,0,0.5-0.1,0.8-0.3c0.4-0.4,0.4-1,0-1.5L98.6,170.4z"/>
	</g>
	<g id="XMLID_299_">
		<path id="XMLID_300_" style="fill:#CCCCCC;" d="M296.4,110c0.3-0.4,0.6-0.6,0.9-1l-2.8-2.8c-0.3-0.3-0.6-0.3-1,0
			c-0.3,0.3-0.3,0.6,0,1L296.4,110z"/>
		<path id="XMLID_301_" style="fill:#CCCCCC;" d="M299.9,108.2c0.3,0,0,0,1.3,0v-3.9c0-0.4-0.9-0.6-1.3-0.6s-1.3,0.3-1.3,0.6v3.9
			C299.9,108.2,299.7,108.2,299.9,108.2z"/>
		<path id="XMLID_302_" style="fill:#CCCCCC;" d="M295.6,112.4c0-0.3,0-0.6,0-0.6h-3.9c-0.4,0-0.6,0.3-0.6,0.6
			c0,0.4,0.3,0.6,0.6,0.6h3.9C295.6,113,295.6,112.7,295.6,112.4z"/>
		<path id="XMLID_303_" style="fill:#CCCCCC;" d="M303.5,110l2.8-2.8c0.3-0.3,0.3-0.6,0-1c-0.3-0.3-0.6-0.3-1,0l-2.8,2.8
			C302.8,109.4,303.2,109.6,303.5,110z"/>
		<path id="XMLID_304_" style="fill:#CCCCCC;" d="M296.5,115.1l-2.8,2.8c-0.3,0.3-0.3,0.6,0,1c0.1,0.1,0.3,0.3,0.5,0.3
			s0.4-0.1,0.5-0.3l2.8-2.8C297,115.8,296.8,115.4,296.5,115.1z"/>
		<path id="XMLID_305_" style="fill:#CCCCCC;" d="M308,111.8h-3.9c0,0,0,0.4,0,0.6c0,0.3,0,0.6,0,0.6h3.9c0.4,0,0.6-0.3,0.6-0.6
			C308.8,112,308.4,111.8,308,111.8z"/>
		<path id="XMLID_306_" style="fill:#CCCCCC;" d="M299.9,116.8c-0.3,0,0,0-1.3,0v3.9c0,0.4,0.9,0.6,1.3,0.6s1.3-0.3,1.3-0.6v-3.9
			C299.9,116.8,300.2,116.8,299.9,116.8z"/>
		<path id="XMLID_307_" style="fill:#CCCCCC;" d="M303.3,115.1c-0.3,0.4-0.6,0.6-1,0.9l2.8,2.8c0.1,0.1,0.3,0.3,0.5,0.3
			c0.3,0,0.4-0.1,0.5-0.3c0.3-0.3,0.3-0.6,0-1L303.3,115.1z"/>
	</g>
	<g id="XMLID_308_">
		<path id="XMLID_309_" style="fill:#CCCCCC;" d="M528.4,90.7c0.3-0.4,0.6-0.6,0.9-1l-2.7-2.7c-0.3-0.3-0.6-0.3-1,0
			c-0.3,0.3-0.3,0.6,0,1L528.4,90.7z"/>
		<path id="XMLID_310_" style="fill:#CCCCCC;" d="M531.9,88.9c0.3,0,0.6,0,0.6,0V85c0-0.4-0.3-0.6-0.6-0.6s-0.6,0.3-0.6,0.6v3.9
			C531.3,88.9,531.7,88.9,531.9,88.9z"/>
		<path id="XMLID_311_" style="fill:#CCCCCC;" d="M527.5,93.4c0-0.3,0-0.6,0-0.6h-3.8c-0.4,0-0.6,0.3-0.6,0.6c0,0.4,0.3,0.6,0.6,0.6
			h3.9C527.5,94.1,527.5,93.7,527.5,93.4z"/>
		<path id="XMLID_312_" style="fill:#CCCCCC;" d="M535.3,90.7l2.8-2.8c0.3-0.3,0.3-0.6,0-1c-0.3-0.3-0.6-0.3-1,0l-2.7,2.7
			C534.7,90,535.1,90.4,535.3,90.7z"/>
		<path id="XMLID_313_" style="fill:#CCCCCC;" d="M528.4,95.7l-2.8,2.8c-0.3,0.3-0.3,0.6,0,1c0.1,0.1,0.3,0.3,0.5,0.3
			c0.3,0,0.4-0.1,0.5-0.3l2.8-2.8C528.9,96.5,528.6,96.1,528.4,95.7z"/>
		<path id="XMLID_314_" style="fill:#CCCCCC;" d="M539.9,92.8H536c0,0,0,0.4,0,0.6c0,0.3,0,0.6,0,0.6h3.9c0.4,0,0.6-0.3,0.6-0.6
			C540.6,93.1,540.3,92.8,539.9,92.8z"/>
		<path id="XMLID_315_" style="fill:#CCCCCC;" d="M531.9,97.5c-0.3,0-0.6,0-0.6,0v3.9c0,0.4,0.3,0.6,0.6,0.6s0.6-0.3,0.6-0.6v-3.9
			C532.6,97.5,532.2,97.5,531.9,97.5z"/>
		<path id="XMLID_316_" style="fill:#CCCCCC;" d="M535.2,95.7c-0.3,0.4-0.6,0.6-1,0.9l2.8,2.8c0.1,0.1,0.3,0.3,0.5,0.3
			c0.3,0,0.4-0.1,0.5-0.3c0.3-0.3,0.3-0.6,0-1L535.2,95.7z"/>
	</g>
	<g id="XMLID_317_">
		<path id="XMLID_318_" style="fill:#B3B3B3;" d="M333.3,48.4c0.4-0.6,0.9-1,1.5-1.5l-4.2-4.2c-0.4-0.4-1-0.4-1.5,0
			c-0.4,0.4-0.4,1,0,1.5L333.3,48.4z"/>
		<path id="XMLID_319_" style="fill:#B3B3B3;" d="M338.5,45.7c0.4,0,0.6,0,0.6,0.1v-6.1c0-0.6,0-1-0.6-1s-0.6,0.5-0.6,1v6.1
			C337.8,45.7,338.1,45.7,338.5,45.7z"/>
		<path id="XMLID_320_" style="fill:#B3B3B3;" d="M332,52.4c0-0.4,0-1.3,0.1-1.3h-6.1c-0.6,0-1,0.6-1,1.3s0.5,1.3,1,1.3h6.1
			C332,53.6,332,52.7,332,52.4z"/>
		<path id="XMLID_321_" style="fill:#B3B3B3;" d="M344,48.4l4.3-4.3c0.4-0.4,0.4-1,0-1.5c-0.4-0.4-1-0.4-1.5,0l-4.2,4.2
			C343.2,47.3,343.7,47.8,344,48.4z"/>
		<path id="XMLID_322_" style="fill:#B3B3B3;" d="M333.3,56.3l-4.3,4.3c-0.4,0.4-0.4,1,0,1.5c0.3,0.3,0.5,0.3,0.8,0.3
			c0.3,0,0.5-0.1,0.8-0.3l4.3-4.3C334.2,57.3,333.7,56.8,333.3,56.3z"/>
		<path id="XMLID_323_" style="fill:#B3B3B3;" d="M351.3,51.1h-6.1c0,0,0.1,0.9,0.1,1.3s0,1.3-0.1,1.3h6.1c0.6,0,1-0.6,1-1.3
			C352.4,51.7,351.9,51.1,351.3,51.1z"/>
		<path id="XMLID_324_" style="fill:#B3B3B3;" d="M338.5,58.9c-0.4,0-0.6,0-0.6-0.1v6.1c0,0.6,0,1,0.6,1s0.6-0.5,0.6-1v-6.1
			C339.1,58.9,338.9,58.9,338.5,58.9z"/>
		<path id="XMLID_325_" style="fill:#B3B3B3;" d="M344,56.3c-0.4,0.5-0.9,1-1.5,1.5l4.3,4.3c0.3,0.3,0.5,0.3,0.8,0.3
			s0.5-0.1,0.8-0.3c0.4-0.4,0.4-1,0-1.5L344,56.3z"/>
	</g>
	<g id="XMLID_326_">
		<path id="XMLID_327_" style="fill:#B3B3B3;" d="M462.4,260c0.4-0.6,0.9-1,1.5-1.5l-4.2-4.2c-0.4-0.4-1-0.4-1.5,0
			c-0.4,0.4-0.4,1,0,1.5L462.4,260z"/>
		<path id="XMLID_328_" style="fill:#B3B3B3;" d="M468.1,257.2c0.4,0,0,0,1.3,0.1v-6.1c0-0.6-0.6-1-1.3-1c-0.6,0-1.3,0.5-1.3,1v6.1
			C466.8,257.2,467.7,257.2,468.1,257.2z"/>
		<path id="XMLID_329_" style="fill:#B3B3B3;" d="M461.1,263.5c0-0.4,0,0,0.1-1.3h-6.1c-0.6,0-1,0.6-1,1.3s0.5,1.3,1,1.3h6.1
			C461.1,264.8,461.1,263.9,461.1,263.5z"/>
		<path id="XMLID_330_" style="fill:#B3B3B3;" d="M473.1,260l4.3-4.3c0.4-0.4,0.4-1,0-1.5c-0.4-0.4-1-0.4-1.5,0l-4.2,4.2
			C472.2,258.9,472.8,259.4,473.1,260z"/>
		<path id="XMLID_331_" style="fill:#B3B3B3;" d="M462.4,267.8l-4.3,4.3c-0.4,0.4-0.4,1,0,1.5c0.3,0.3,0.5,0.3,0.8,0.3
			s0.5-0.1,0.8-0.3l4.3-4.3C463.3,268.9,462.8,268.4,462.4,267.8z"/>
		<path id="XMLID_332_" style="fill:#B3B3B3;" d="M480.3,262.2h-5.9c0,1.3,0.1,0.9,0.1,1.3s0,1.3-0.1,1.3h6.1c0.6,0,1-0.6,1-1.3
			C481.5,262.9,481,262.2,480.3,262.2z"/>
		<path id="XMLID_333_" style="fill:#B3B3B3;" d="M468.1,270.6c-0.4,0-1.3,0-1.3-0.1v6.1c0,0.6,0.6,1,1.3,1c0.6,0,1.3-0.5,1.3-1
			v-6.1C468.1,270.4,468.5,270.6,468.1,270.6z"/>
		<path id="XMLID_334_" style="fill:#B3B3B3;" d="M473.1,267.8c-0.4,0.5-0.9,1-1.5,1.5l4.3,4.3c0.3,0.3,0.5,0.3,0.8,0.3
			s0.5-0.1,0.8-0.3c0.4-0.4,0.4-1,0-1.5L473.1,267.8z"/>
	</g>
	<g id="XMLID_335_">
		<path id="XMLID_336_" style="fill:#CCCCCC;" d="M161.7,27.3c0.3-0.4,0.6-0.6,0.9-1l-2.8-2.8c-0.3-0.3-0.6-0.3-1,0
			c-0.3,0.3-0.3,0.6,0,1L161.7,27.3z"/>
		<path id="XMLID_337_" style="fill:#CCCCCC;" d="M165.3,25.6c0.3,0,0.6,0,0.6,0v-3.9c0-0.4-0.3-0.6-0.6-0.6c-0.4,0-0.6,0.3-0.6,0.6
			v3.9C164.6,25.6,165,25.6,165.3,25.6z"/>
		<path id="XMLID_338_" style="fill:#CCCCCC;" d="M160.8,30.2c0-0.3,0-0.6,0-0.6h-3.8c-0.4,0-0.6,0.3-0.6,0.6s0.3,0.6,0.6,0.6h3.9
			C160.8,30.9,160.8,30.5,160.8,30.2z"/>
		<path id="XMLID_339_" style="fill:#CCCCCC;" d="M168.7,27.3l2.8-2.8c0.3-0.3,0.3-0.6,0-1c-0.3-0.3-0.6-0.3-1,0l-2.8,2.8
			C168.1,26.6,168.4,26.9,168.7,27.3z"/>
		<path id="XMLID_340_" style="fill:#CCCCCC;" d="M161.7,32.4l-2.8,2.8c-0.3,0.3-0.3,0.6,0,1c0.1,0.1,0.3,0.3,0.5,0.3
			s0.4-0.1,0.5-0.3l2.8-2.8C162.2,33,162,32.8,161.7,32.4z"/>
		<path id="XMLID_341_" style="fill:#CCCCCC;" d="M173.4,29.6h-3.9c0,0,0,0.4,0,0.6c0,0.3,0,0.6,0,0.6h3.9c0.4,0,0.6-0.3,0.6-0.6
			S173.7,29.6,173.4,29.6z"/>
		<path id="XMLID_342_" style="fill:#CCCCCC;" d="M165.3,34.1c-0.3,0-0.6,0-0.6,0v3.9c0,0.4,0.3,0.6,0.6,0.6c0.4,0,0.6-0.3,0.6-0.6
			v-3.9C165.9,34.1,165.5,34.1,165.3,34.1z"/>
		<path id="XMLID_343_" style="fill:#CCCCCC;" d="M168.7,32.4c-0.3,0.4-0.6,0.6-1,0.9l2.8,2.8c0.1,0.1,0.3,0.3,0.5,0.3
			s0.4-0.1,0.5-0.3c0.3-0.3,0.3-0.6,0-1L168.7,32.4z"/>
	</g>
	<g id="XMLID_344_">
		<path id="XMLID_345_" style="fill:#CCCCCC;" d="M85.6,75.6v3.2v6.1c-0.1,0-0.3,0-0.4,0c-1.4,0-2.4,1.1-2.4,2.4
			c0,1.4,1.1,2.4,2.4,2.4c1.4,0,2.4-1.1,2.4-2.4v-8.9l6.1-1.3V83c-0.1,0-0.3,0-0.4,0c-1.4,0-2.4,1.1-2.4,2.4c0,1.4,1.1,2.4,2.4,2.4
			s2.4-1.1,2.4-2.4v-8.6v-3.2L85.6,75.6z"/>
	</g>
	<g id="XMLID_346_">
		<path id="XMLID_347_" style="fill:#B3B3B3;" d="M255.7,62.3l-7.6,1v9c0-0.1-0.6-0.1-0.9-0.1c-1.6,0-2.9,1.1-2.9,2.4
			s1.5,2.4,3.2,2.4c1.6,0,3.2-1.1,3.2-2.4V66l5.1-0.8V62.3z"/>
	</g>
	<g id="XMLID_348_">
		<path id="XMLID_349_" style="fill:#B3B3B3;" d="M541.4,209.3l-6.3,1v9c0-0.1-0.8-0.1-1.1-0.1c-1.6,0-3,1.1-3,2.4s1,2.4,2.7,2.4
			c1.6,0,2.7-1.1,2.7-2.4v-8.6l5.1-0.8v-2.9H541.4z"/>
	</g>
	<g id="XMLID_350_">
		<path id="XMLID_351_" style="fill:#CCCCCC;" d="M447.2,36.6v3.2v6.1c-0.1,0-0.3,0-0.4,0c-1.4,0-2.4,1.1-2.4,2.4
			c0,1.4,1.1,2.4,2.4,2.4c1.4,0,2.4-1.1,2.4-2.4v-8.9l6.1-1.3v5.8c-0.1,0-0.3,0-0.4,0c-1.4,0-2.4,1.1-2.4,2.4c0,1.4,1.1,2.4,2.4,2.4
			s2.4-1.1,2.4-2.4v-8.6v-3.2L447.2,36.6z"/>
	</g>
</g>
<g id="carpet">
	<ellipse id="XMLID_352_" style="fill:#F5F5F5;" cx="300.3" cy="340.6" rx="263.9" ry="36.3"/>
</g>
<g id="vinyl">
	<g id="Calque_7">
		<circle id="XMLID_353_" style="fill:#FFFFFF;" cx="450.8" cy="151.2" r="64.5"/>
	</g>
	<g id="XMLID_354_">
		<g id="XMLID_355_">
			<path id="XMLID_356_" style="fill:#4D4D4D;" d="M502.1,140.9c0.4,1.5,1.9,2.5,3.4,2.3c1.5-0.3,2.5-1.9,2.3-3.4
				c-6.4-31.5-37.3-51.7-68.7-45.3c-1.5,0.4-2.5,1.9-2.3,3.4c0.4,1.5,1.9,2.5,3.4,2.3C468.5,94.3,496.3,112.5,502.1,140.9z
				 M418.9,155c-1.5,0.4-2.5,1.9-2.3,3.4c3.9,18.8,22.4,31,41.2,27.2c1.5-0.4,2.5-1.9,2.3-3.4c-0.4-1.5-1.9-2.5-3.4-2.3
				c-15.7,3.3-31.1-7-34.4-22.6C421.9,155.6,420.4,154.6,418.9,155z M410.9,159.6c-0.4-1.5-1.9-2.5-3.4-2.3
				c-1.5,0.4-2.5,1.9-2.3,3.4c5.2,25.2,29.8,41.3,55,36.2c1.5-0.4,2.5-1.9,2.3-3.4c-0.4-1.5-1.9-2.5-3.4-2.3
				C437,195.9,415.4,181.6,410.9,159.6z M464.8,205c-0.4-1.5-1.9-2.5-3.4-2.3c-28.3,5.8-56-12.5-61.8-40.7c-0.4-1.5-1.9-2.5-3.4-2.3
				c-1.5,0.4-2.5,1.9-2.3,3.4c6.4,31.5,37.3,51.7,68.7,45.3C464,208.1,465,206.5,464.8,205z M490.7,143.3c0.4,1.5,1.9,2.5,3.4,2.3
				c1.5-0.3,2.5-1.9,2.3-3.4c-5.2-25.2-29.8-41.3-55-36.2c-1.5,0.4-2.5,1.9-2.3,3.4c0.4,1.5,1.9,2.5,3.4,2.3
				C464.5,107,486.2,121.3,490.7,143.3z M482.7,147.8c1.5-0.4,2.5-1.9,2.3-3.4c-3.9-18.8-22.4-31-41.2-27.2
				c-1.5,0.4-2.5,1.9-2.3,3.4c0.4,1.5,1.9,2.5,3.4,2.3c15.7-3.3,31.1,7,34.4,22.6C479.6,147.2,481.1,148.2,482.7,147.8z
				 M519.2,137.3c-7.7-37.7-44.8-62.1-82.4-54.4s-62.1,44.8-54.4,82.4c7.7,37.7,44.8,62.1,82.4,54.4
				C502.5,212,526.9,175.1,519.2,137.3z M388,164.2c-7.1-34.5,15.3-68.4,49.8-75.6c34.5-7.1,68.4,15.3,75.6,49.8
				c7.1,34.5-15.3,68.4-49.8,75.6C429.1,221.1,395.2,198.9,388,164.2z M454.3,168.5c9.5-1.9,15.6-11.1,13.5-20.6
				c-1.9-9.5-11.1-15.6-20.6-13.5c-9.5,1.9-15.6,11.1-13.5,20.6C435.6,164.4,444.8,170.4,454.3,168.5z M448.5,140
				c6.3-1.3,12.4,2.8,13.8,9.1c1.3,6.3-2.8,12.4-9.1,13.8c-6.3,1.3-12.4-2.8-13.8-9.1C438.1,147.4,442.2,141.2,448.5,140z
				 M451.9,157c3.2-0.6,5.2-3.7,4.6-6.8c-0.6-3.2-3.7-5.2-6.8-4.6c-3.2,0.6-5.2,3.7-4.6,6.8C445.7,155.8,448.9,157.8,451.9,157z"/>
		</g>
	</g>
</g>
<g id="boombox">
	<g id="XMLID_368_">
		<path id="XMLID_369_" style="fill:#4D4D4D;" d="M190.1,230.1c-1.3,0-2.3,1-2.3,2.3s1,2.3,2.3,2.3s2.3-1,2.3-2.3
			C192.3,231.1,191.3,230.1,190.1,230.1z"/>
		<path id="XMLID_370_" style="fill:#4D4D4D;" d="M109.1,234.5c1.3,0,2.3-1,2.3-2.3s-1-2.3-2.3-2.3s-2.3,1-2.3,2.3
			S107.9,234.5,109.1,234.5z"/>
		<path id="XMLID_371_" style="fill:#4D4D4D;" d="M142.9,250.3c1.3,0,2.3-1,2.3-2.3s-1-2.3-2.3-2.3s-2.3,1-2.3,2.3
			S141.6,250.3,142.9,250.3z"/>
		<path id="XMLID_372_" style="fill:#4D4D4D;" d="M151.9,250.3c1.3,0,2.3-1,2.3-2.3s-1-2.3-2.3-2.3s-2.3,1-2.3,2.3
			C149.6,249.3,150.6,250.3,151.9,250.3z"/>
		<path id="XMLID_373_" style="fill:#4D4D4D;" d="M160.8,250.3c1.3,0,2.3-1,2.3-2.3s-1-2.3-2.3-2.3s-2.3,1-2.3,2.3
			S159.6,250.3,160.8,250.3z"/>
		<path id="XMLID_374_" style="fill:#4D4D4D;" d="M185.5,261.6c1.3,0,2.3-1,2.3-2.3c0-1.3-1-2.3-2.3-2.3s-2.3,1-2.3,2.3
			C183.2,260.6,184.4,261.6,185.5,261.6z"/>
		<path id="XMLID_375_" style="fill:#4D4D4D;" d="M118,257c-1.3,0-2.3,1-2.3,2.3c0,1.3,1,2.3,2.3,2.3s2.3-1,2.3-2.3
			C120.3,258.1,119.3,257,118,257z"/>
		<path id="XMLID_376_" style="fill:#4D4D4D;" d="M203.6,202.8h-7.3v-10.9v-6.8c0-1.3-0.5-2.5-1.6-2.5h-85.3c-1.3,0-2.7,1.4-2.7,2.5
			v6.7v10.9h-6.3c-1.3,0-2.5,1.4-2.5,2.5v71.9c0,1.3,1.3,2.7,2.5,2.7h35.9l0,0h31.5l0,0h35.9c1.3,0,2.8-1.4,2.8-2.7v-71.8
			C206.4,204.2,204.7,202.8,203.6,202.8z M111.5,187.6h80.9v2.5h-80.9V187.6z M111.5,194h80.9v8.9h-4.7c0-1.3-1-2.5-2.3-2.5h-4.4
			c-1.3,0-2.3,1.3-2.3,2.5h-6.7c0-1.3-1-2.3-2.3-2.3s-2.3,1-2.3,2.3H163c0-1.3-1-2.3-2.3-2.3c-1.3,0-2.3,1-2.3,2.3h-4.6
			c0-1.3-1-2.3-2.3-2.3s-2.3,1-2.3,2.3h-4.6c0-1.3-1-2.3-2.3-2.3s-2.3,1-2.3,2.3h-4.6c0-1.3-1-2.3-2.3-2.3s-2.3,1-2.3,2.3h-6.7
			c0-1.3-1-2.5-2.3-2.5h-4.6c-1.3,0-2.3,1.3-2.3,2.5h-3.8V194z M201.3,207.9v31.6h-98.6v-31.6H201.3z M165.9,266h-7.5h-13.3h-7.1
			v-6.7v-16.1h27.8V266z M155.8,271.1v3.8h-8.9v-3.8H155.8z M138.3,271.1h4.8v3.8h-5.1v-4.3L138.3,271.1z M160.8,274.9v-3.8h5.1v3.8
			H160.8z M102.7,275v-15.7v-16.1h31.6v25v6.6h-16.2h-15.7L102.7,275z M201.3,274.9h-15.8h-15.8v-6.6v-9c0,8.7,7.1,15.7,15.8,15.7
			c8.7,0,15.8-7.1,15.8-15.7c0-8.6-7.1-15.7-15.8-15.7c-8.7,0-15.8,7.1-15.8,15.7v-16.1h15.8h15.8v16.1V274.9z M174.4,259.3
			c0-6.2,5.1-11.3,11.3-11.3s11.3,5.1,11.3,11.3c0,6.2-5.1,11.3-11.3,11.3C179.3,270.6,174.4,265.5,174.4,259.3z"/>
		<path id="XMLID_388_" style="fill:#4D4D4D;" d="M109.1,225.6h67.4c1.3,0,2-1,2-2.1v-9c0-1.3-0.8-2.7-2-2.7h-67.4
			c-1.3,0-2.7,1.5-2.7,2.7v9C106.5,224.6,107.9,225.6,109.1,225.6z M111.5,216.7h63.2v3.8h-22.9c0-1.3-1-2.3-2.3-2.3s-2.3,1-2.3,2.3
			h-35.8V216.7z"/>
		<path id="XMLID_391_" style="fill:#4D4D4D;" d="M190.1,225.6c3.7,0,6.7-3,6.7-6.7c0-3.7-3-6.7-6.7-6.7c-3.7,0-6.7,3-6.7,6.7
			C183.4,222.5,186.4,225.6,190.1,225.6z M190.1,216.6c1.3,0,2.3,1,2.3,2.3c0,1.3-1,2.3-2.3,2.3s-2.3-1-2.3-2.3
			C187.8,217.6,188.8,216.6,190.1,216.6z"/>
		<path id="XMLID_394_" style="fill:#4D4D4D;" d="M133.9,259.3c0-8.7-7.1-15.7-15.7-15.7c-8.7,0-15.7,7.1-15.7,15.7
			c0,8.7,7.1,15.7,15.7,15.7C126.8,275,133.9,267.9,133.9,259.3z M118.1,270.6c-6.2,0-11.3-5.1-11.3-11.3c0-6.2,5.1-11.3,11.3-11.3
			s11.3,5.1,11.3,11.3C129.4,265.5,124.3,270.6,118.1,270.6z"/>
		<path id="XMLID_397_" style="fill:#4D4D4D;" d="M165.1,259.3c0-3.7-3-6.7-6.7-6.7c-3.4,0-6.2,2.5-6.7,5.7
			c-0.5-3.3-3.3-5.7-6.7-5.7c-3.7,0-6.7,3-6.7,6.7c0,3.7,3,6.7,6.7,6.7c3.4,0,6.2-2.5,6.7-5.7c0.5,3.3,3.3,5.7,6.7,5.7
			C162.1,266,165.1,263,165.1,259.3z M145.2,261.6c-1.3,0-2.3-1-2.3-2.3c0-1.3,1-2.3,2.3-2.3s2.3,1,2.3,2.3
			C147.4,260.6,146.3,261.6,145.2,261.6z M158.4,261.6c-1.3,0-2.3-1-2.3-2.3c0-1.3,1-2.3,2.3-2.3s2.3,1,2.3,2.3
			C160.7,260.6,159.7,261.6,158.4,261.6z"/>
		<path id="XMLID_401_" style="fill:#4D4D4D;" d="M124.9,230.6h-9c-1.3,0-2.3,0.6-2.3,1.9s1,1.9,2.3,1.9h9c1.3,0,2.3-0.6,2.3-1.9
			C127.1,231.3,126.1,230.6,124.9,230.6z"/>
		<path id="XMLID_402_" style="fill:#4D4D4D;" d="M167.5,230.6h-35.9c-1.3,0-2.3,0.6-2.3,1.9s1,1.9,2.3,1.9h35.9
			c1.3,0,2.3-0.6,2.3-1.9S168.8,230.6,167.5,230.6z"/>
		<path id="XMLID_403_" style="fill:#4D4D4D;" d="M172.1,232.5c0,1.3,1,1.9,2.3,1.9h9c1.3,0,2.3-0.6,2.3-1.9s-1-1.9-2.3-1.9h-9
			C173.1,230.6,172.1,231.3,172.1,232.5z"/>
	</g>
</g>
<g id="faces">
	<g id="background">
		<rect id="XMLID_404_" x="183.6" y="145.9" style="fill:#FFFFFF;" width="237.7" height="182.1"/>
	</g>
	<path id="sad" style="display:none;fill:#FF1744;stroke:#FFFFFF;stroke-width:5;stroke-miterlimit:10;" d="M261.2,279.3
		c27.2-3.9,50.3-3.9,77.5,0c0-15.7-15.6-31.2-38.7-31.2C276.9,248.2,261.2,263.6,261.2,279.3z M267.2,230.9c9.7,0,17.2-8,17.2-17.8
		c0-9.4-7.5-17.3-17.2-17.3c-9.9,0-17.6,8-17.6,17.3C249.6,222.9,257.3,230.9,267.2,230.9z M332.8,230.9c9.7,0,17.3-8,17.3-17.8
		c0-9.4-7.7-17.3-17.3-17.3s-17.3,8-17.3,17.3C315.5,222.9,323.2,230.9,332.8,230.9z M186.6,337.5h226.7c9.9,0,15-4,15-14V150.1
		c0-10-5.2-14.9-15-14.9H186.6c-9.9,0-15,4.9-15,14.9v173.3C171.6,333.4,176.8,337.5,186.6,337.5z M190.6,319.8v-19h17.7v19H190.6z
		 M190.6,283.1v-19h17.7v19H190.6z M190.6,246.4v-19h17.7v19H190.6z M190.6,209.8v-20.2h17.7v20.2H190.6z M190.6,171.8v-17.7h17.7
		v17.7H190.6z M227.2,319.8V154.1h145.4v165.6H227.2z M391.6,319.8v-19h17.7v19H391.6z M391.6,283.1v-19h17.7v19H391.6z
		 M391.6,246.4v-19h17.7v19H391.6z M391.6,209.8v-20.2h17.7v20.2H391.6z M391.6,171.8v-17.7h17.7v17.7H391.6z"/>
	<path id="happy" style="fill:#FF1744;stroke:#FFFFFF;stroke-width:5;stroke-miterlimit:10;" d="M299.9,289.5
		c25.8,0,45.8-16.1,45.8-36.9c-25.8,3.5-65.7,3.5-91.7,0C254.2,273.5,274.1,289.5,299.9,289.5z M267.9,229.6
		c10.2,0,18.3-8,18.3-18.5c0-10.4-8.1-18.5-18.3-18.5c-10.2,0-18.3,8.1-18.3,18.5C249.6,221.6,257.7,229.6,267.9,229.6z M332,229.6
		c10.2,0,18.3-8,18.3-18.5c0-10.4-8.1-18.5-18.3-18.5c-10.2,0-18.3,8.1-18.3,18.5C313.7,221.6,321.8,229.6,332,229.6z M186.4,337.5
		h227.2c9.9,0,14.7-4.3,14.7-14.2V150c0-10-4.8-14.8-14.7-14.8H186.4c-9.9,0-14.8,4.8-14.8,14.8v173.3
		C171.6,333.2,176.5,337.5,186.4,337.5z M190.6,319.8v-19h17.7v19H190.6z M190.6,283.1v-19h17.7v19H190.6z M190.6,246.4v-19h17.7v19
		H190.6z M190.6,208.5v-17.7h17.7v17.7H190.6z M190.6,171.8v-17.7h17.7v17.7H190.6z M227.2,319.8V154.1h146.7v165.6H227.2z
		 M391.6,319.8v-19h19v19H391.6z M391.6,283.1v-19h19v19H391.6z M391.6,246.4v-19h19v19H391.6z M391.6,208.5v-17.7h19v17.7H391.6z
		 M391.6,171.8v-17.7h19v17.7H391.6z"/>
</g>
</svg>
