<?xml version="1.0" encoding="utf-8"?>
<!-- Generator: Adobe Illustrator 19.0.0, SVG Export Plug-In . SVG Version: 6.00 Build 0)  -->
<svg version="1.1" id="Calque_1" xmlns="http://www.w3.org/2000/svg" xmlns:xlink="http://www.w3.org/1999/xlink" x="0px" y="0px"
	 viewBox="0 0 600 400" style="enable-background:new 0 0 600 400;" xml:space="preserve">
<g id="Calque_2">
	<g id="XMLID_55_">
		<path id="XMLID_52_" style="fill:#999999;" d="M147.8,110.9c0.7-0.9,1.5-1.7,2.4-2.4l-6.8-6.8c-0.7-0.7-1.7-0.7-2.4,0
			s-0.7,1.7,0,2.4L147.8,110.9z"/>
		<path id="XMLID_50_" style="fill:#999999;" d="M156.6,106.4c0.6,0,1.1,0,1.7,0.1v-9.7c0-0.9-0.8-1.7-1.7-1.7s-1.7,0.8-1.7,1.7v9.7
			C155.4,106.4,156,106.4,156.6,106.4z"/>
		<path id="XMLID_49_" style="fill:#999999;" d="M145.8,117.2c0-0.6,0-1.1,0.1-1.7h-9.7c-0.9,0-1.7,0.8-1.7,1.7
			c0,0.9,0.8,1.7,1.7,1.7h9.7C145.8,118.3,145.8,117.7,145.8,117.2z"/>
		<path id="XMLID_48_" style="fill:#999999;" d="M165.3,110.9l6.8-6.8c0.7-0.7,0.7-1.7,0-2.4c-0.7-0.7-1.7-0.7-2.4,0l-6.8,6.8
			C163.9,109.1,164.7,110,165.3,110.9z"/>
		<path id="XMLID_46_" style="fill:#999999;" d="M147.9,123.5l-6.9,6.9c-0.7,0.7-0.7,1.7,0,2.4c0.3,0.3,0.8,0.5,1.2,0.5
			s0.9-0.2,1.2-0.5l6.9-6.9C149.4,125.2,148.6,124.4,147.9,123.5z"/>
		<path id="XMLID_45_" style="fill:#999999;" d="M176.9,115.5h-9.7c0.1,0.5,0.1,1.1,0.1,1.7s0,1.1-0.1,1.7h9.7
			c0.9,0,1.7-0.8,1.7-1.7C178.6,116.2,177.8,115.5,176.9,115.5z"/>
		<path id="XMLID_44_" style="fill:#999999;" d="M156.6,127.9c-0.6,0-1.1,0-1.7-0.1v9.7c0,0.9,0.8,1.7,1.7,1.7s1.7-0.8,1.7-1.7v-9.7
			C157.7,127.9,157.1,127.9,156.6,127.9z"/>
		<path id="XMLID_42_" style="fill:#999999;" d="M165.2,123.5c-0.7,0.9-1.5,1.7-2.4,2.4l6.9,6.9c0.3,0.3,0.8,0.5,1.2,0.5
			s0.9-0.2,1.2-0.5c0.7-0.7,0.7-1.7,0-2.4L165.2,123.5z"/>
	</g>
	<g id="XMLID_72_">
		<path id="XMLID_84_" style="fill:#999999;" d="M375.2,119.5c0.8-1.1,1.7-2,2.7-2.8l-7.8-7.8c-0.8-0.8-2-0.8-2.7,0
			c-0.8,0.8-0.8,2,0,2.7L375.2,119.5z"/>
		<path id="XMLID_83_" style="fill:#999999;" d="M385.2,114.3c0.7,0,1.3,0.1,1.9,0.2v-11.2c0-1.1-0.9-1.9-1.9-1.9s-1.9,0.9-1.9,1.9
			v11.2C383.9,114.4,384.6,114.3,385.2,114.3z"/>
		<path id="XMLID_82_" style="fill:#999999;" d="M372.8,126.7c0-0.7,0.1-1.3,0.2-1.9h-11.2c-1.1,0-1.9,0.9-1.9,1.9
			c0,1.1,0.9,1.9,1.9,1.9H373C372.9,128,372.8,127.3,372.8,126.7z"/>
		<path id="XMLID_81_" style="fill:#999999;" d="M395.3,119.5l7.8-7.8c0.8-0.8,0.8-2,0-2.7c-0.8-0.8-2-0.8-2.7,0l-7.8,7.8
			C393.6,117.5,394.5,118.4,395.3,119.5z"/>
		<path id="XMLID_80_" style="fill:#999999;" d="M375.3,134l-7.9,7.9c-0.8,0.8-0.8,2,0,2.7c0.4,0.4,0.9,0.6,1.4,0.6s1-0.2,1.4-0.6
			l8-8C377,136,376,135.1,375.3,134z"/>
		<path id="XMLID_79_" style="fill:#999999;" d="M408.6,124.8h-11.2c0.1,0.6,0.2,1.3,0.2,1.9c0,0.7-0.1,1.3-0.2,1.9h11.2
			c1.1,0,1.9-0.9,1.9-1.9C410.5,125.6,409.7,124.8,408.6,124.8z"/>
		<path id="XMLID_78_" style="fill:#999999;" d="M385.2,139.1c-0.7,0-1.3-0.1-1.9-0.2v11.2c0,1.1,0.9,1.9,1.9,1.9s1.9-0.9,1.9-1.9
			v-11.2C386.5,139,385.9,139.1,385.2,139.1z"/>
		<path id="XMLID_77_" style="fill:#999999;" d="M395.2,134c-0.8,1-1.7,2-2.8,2.7l8,8c0.4,0.4,0.9,0.6,1.4,0.6s1-0.2,1.4-0.6
			c0.8-0.8,0.8-2,0-2.7L395.2,134z"/>
	</g>
	<g id="XMLID_85_">
		<path id="XMLID_93_" style="fill:#B3B3B3;" d="M88.3,162.7c0.4-0.6,0.9-1.1,1.5-1.5l-4.2-4.2c-0.4-0.4-1.1-0.4-1.5,0
			s-0.4,1.1,0,1.5L88.3,162.7z"/>
		<path id="XMLID_92_" style="fill:#B3B3B3;" d="M93.7,160c0.4,0,0.7,0,1,0.1v-6c0-0.6-0.5-1-1-1c-0.6,0-1,0.5-1,1v6
			C93,160,93.3,160,93.7,160z"/>
		<path id="XMLID_91_" style="fill:#B3B3B3;" d="M87,166.6c0-0.4,0-0.7,0.1-1h-6c-0.6,0-1,0.5-1,1c0,0.6,0.5,1,1,1h6
			C87,167.3,87,167,87,166.6z"/>
		<path id="XMLID_90_" style="fill:#B3B3B3;" d="M99.1,162.7l4.2-4.2c0.4-0.4,0.4-1.1,0-1.5s-1.1-0.4-1.5,0l-4.2,4.2
			C98.2,161.7,98.7,162.2,99.1,162.7z"/>
		<path id="XMLID_89_" style="fill:#B3B3B3;" d="M88.3,170.6l-4.3,4.3c-0.4,0.4-0.4,1.1,0,1.5c0.2,0.2,0.5,0.3,0.7,0.3
			s0.5-0.1,0.7-0.3l4.3-4.3C89.2,171.6,88.7,171.1,88.3,170.6z"/>
		<path id="XMLID_88_" style="fill:#B3B3B3;" d="M106.2,165.6h-6c0.1,0.3,0.1,0.7,0.1,1s0,0.7-0.1,1h6c0.6,0,1-0.5,1-1
			C107.3,166,106.8,165.6,106.2,165.6z"/>
		<path id="XMLID_87_" style="fill:#B3B3B3;" d="M93.7,173.3c-0.4,0-0.7,0-1-0.1v6c0,0.6,0.5,1,1,1c0.6,0,1-0.5,1-1v-6
			C94.4,173.2,94,173.3,93.7,173.3z"/>
		<path id="XMLID_86_" style="fill:#B3B3B3;" d="M99,170.6c-0.4,0.6-0.9,1.1-1.5,1.5l4.3,4.3c0.2,0.2,0.5,0.3,0.7,0.3
			s0.5-0.1,0.7-0.3c0.4-0.4,0.4-1.1,0-1.5L99,170.6z"/>
	</g>
	<g id="XMLID_103_">
		<path id="XMLID_111_" style="fill:#CCCCCC;" d="M296.2,110.4c0.3-0.4,0.6-0.7,0.9-1l-2.7-2.7c-0.3-0.3-0.7-0.3-0.9,0
			c-0.3,0.3-0.3,0.7,0,0.9L296.2,110.4z"/>
		<path id="XMLID_110_" style="fill:#CCCCCC;" d="M299.6,108.6c0.2,0,0.5,0,0.7,0.1v-3.9c0-0.4-0.3-0.7-0.7-0.7
			c-0.4,0-0.7,0.3-0.7,0.7v3.9C299.2,108.6,299.4,108.6,299.6,108.6z"/>
		<path id="XMLID_109_" style="fill:#CCCCCC;" d="M295.3,112.9c0-0.2,0-0.5,0.1-0.7h-3.9c-0.4,0-0.7,0.3-0.7,0.7
			c0,0.4,0.3,0.7,0.7,0.7h3.9C295.4,113.4,295.3,113.1,295.3,112.9z"/>
		<path id="XMLID_108_" style="fill:#CCCCCC;" d="M303.1,110.4l2.7-2.7c0.3-0.3,0.3-0.7,0-0.9c-0.3-0.3-0.7-0.3-0.9,0l-2.7,2.7
			C302.5,109.7,302.9,110,303.1,110.4z"/>
		<path id="XMLID_107_" style="fill:#CCCCCC;" d="M296.2,115.5l-2.8,2.8c-0.3,0.3-0.3,0.7,0,1c0.1,0.1,0.3,0.2,0.5,0.2
			s0.3-0.1,0.5-0.2l2.8-2.8C296.8,116.1,296.4,115.8,296.2,115.5z"/>
		<path id="XMLID_106_" style="fill:#CCCCCC;" d="M307.8,112.2h-3.9c0,0.2,0.1,0.4,0.1,0.7c0,0.2,0,0.5-0.1,0.7h3.9
			c0.4,0,0.7-0.3,0.7-0.7C308.4,112.5,308.1,112.2,307.8,112.2z"/>
		<path id="XMLID_105_" style="fill:#CCCCCC;" d="M299.6,117.2c-0.2,0-0.5,0-0.7-0.1v3.9c0,0.4,0.3,0.7,0.7,0.7
			c0.4,0,0.7-0.3,0.7-0.7v-3.9C300.1,117.2,299.9,117.2,299.6,117.2z"/>
		<path id="XMLID_104_" style="fill:#CCCCCC;" d="M303.1,115.5c-0.3,0.4-0.6,0.7-1,0.9l2.8,2.8c0.1,0.1,0.3,0.2,0.5,0.2
			s0.3-0.1,0.5-0.2c0.3-0.3,0.3-0.7,0-1L303.1,115.5z"/>
	</g>
	<g id="XMLID_112_">
		<path id="XMLID_120_" style="fill:#CCCCCC;" d="M527.3,91.2c0.3-0.4,0.6-0.7,0.9-1l-2.7-2.7c-0.3-0.3-0.7-0.3-0.9,0
			c-0.3,0.3-0.3,0.7,0,0.9L527.3,91.2z"/>
		<path id="XMLID_119_" style="fill:#CCCCCC;" d="M530.7,89.4c0.2,0,0.5,0,0.7,0.1v-3.9c0-0.4-0.3-0.7-0.7-0.7s-0.7,0.3-0.7,0.7v3.9
			C530.3,89.4,530.5,89.4,530.7,89.4z"/>
		<path id="XMLID_118_" style="fill:#CCCCCC;" d="M526.5,93.7c0-0.2,0-0.5,0.1-0.7h-3.9c-0.4,0-0.7,0.3-0.7,0.7
			c0,0.4,0.3,0.7,0.7,0.7h3.9C526.5,94.1,526.5,93.9,526.5,93.7z"/>
		<path id="XMLID_117_" style="fill:#CCCCCC;" d="M534.2,91.2l2.7-2.7c0.3-0.3,0.3-0.7,0-0.9c-0.3-0.3-0.7-0.3-0.9,0l-2.7,2.7
			C533.6,90.5,534,90.8,534.2,91.2z"/>
		<path id="XMLID_116_" style="fill:#CCCCCC;" d="M527.3,96.2l-2.7,2.7c-0.3,0.3-0.3,0.7,0,0.9c0.1,0.1,0.3,0.2,0.5,0.2
			s0.3-0.1,0.5-0.2l2.8-2.8C527.9,96.9,527.6,96.5,527.3,96.2z"/>
		<path id="XMLID_115_" style="fill:#CCCCCC;" d="M538.8,93H535c0,0.2,0.1,0.4,0.1,0.7s0,0.5-0.1,0.7h3.9c0.4,0,0.7-0.3,0.7-0.7
			C539.5,93.3,539.2,93,538.8,93z"/>
		<path id="XMLID_114_" style="fill:#CCCCCC;" d="M530.7,97.9c-0.2,0-0.5,0-0.7-0.1v3.9c0,0.4,0.3,0.7,0.7,0.7s0.7-0.3,0.7-0.7v-3.9
			C531.2,97.9,531,97.9,530.7,97.9z"/>
		<path id="XMLID_113_" style="fill:#CCCCCC;" d="M534.2,96.2c-0.3,0.4-0.6,0.7-1,0.9l2.8,2.8c0.1,0.1,0.3,0.2,0.5,0.2
			s0.3-0.1,0.5-0.2c0.3-0.3,0.3-0.7,0-0.9L534.2,96.2z"/>
	</g>
	<g id="XMLID_121_">
		<path id="XMLID_129_" style="fill:#B3B3B3;" d="M332.8,49c0.4-0.6,0.9-1.1,1.5-1.5l-4.2-4.2c-0.4-0.4-1.1-0.4-1.5,0
			s-0.4,1.1,0,1.5L332.8,49z"/>
		<path id="XMLID_128_" style="fill:#B3B3B3;" d="M338.3,46.2c0.4,0,0.7,0,1,0.1v-6c0-0.6-0.5-1-1-1c-0.6,0-1,0.5-1,1v6
			C337.6,46.2,337.9,46.2,338.3,46.2z"/>
		<path id="XMLID_127_" style="fill:#B3B3B3;" d="M331.6,52.9c0-0.4,0-0.7,0.1-1h-6c-0.6,0-1,0.5-1,1c0,0.6,0.5,1,1,1h6
			C331.6,53.6,331.6,53.2,331.6,52.9z"/>
		<path id="XMLID_126_" style="fill:#B3B3B3;" d="M343.7,49l4.2-4.2c0.4-0.4,0.4-1.1,0-1.5s-1.1-0.4-1.5,0l-4.2,4.2
			C342.8,47.9,343.3,48.4,343.7,49z"/>
		<path id="XMLID_125_" style="fill:#B3B3B3;" d="M332.9,56.8l-4.3,4.3c-0.4,0.4-0.4,1.1,0,1.5c0.2,0.2,0.5,0.3,0.7,0.3
			c0.3,0,0.5-0.1,0.7-0.3l4.3-4.3C333.8,57.9,333.3,57.4,332.9,56.8z"/>
		<path id="XMLID_124_" style="fill:#B3B3B3;" d="M350.8,51.8h-6c0.1,0.3,0.1,0.7,0.1,1s0,0.7-0.1,1h6c0.6,0,1-0.5,1-1
			C351.9,52.3,351.4,51.8,350.8,51.8z"/>
		<path id="XMLID_123_" style="fill:#B3B3B3;" d="M338.3,59.5c-0.4,0-0.7,0-1-0.1v6c0,0.6,0.5,1,1,1c0.6,0,1-0.5,1-1v-6
			C339,59.5,338.6,59.5,338.3,59.5z"/>
		<path id="XMLID_122_" style="fill:#B3B3B3;" d="M343.6,56.8c-0.4,0.6-0.9,1.1-1.5,1.5l4.3,4.3c0.2,0.2,0.5,0.3,0.7,0.3
			s0.5-0.1,0.7-0.3c0.4-0.4,0.4-1.1,0-1.5L343.6,56.8z"/>
	</g>
	<g id="XMLID_130_">
		<path id="XMLID_138_" style="fill:#B3B3B3;" d="M461.5,259.8c0.4-0.6,0.9-1.1,1.5-1.5l-4.2-4.2c-0.4-0.4-1.1-0.4-1.5,0
			s-0.4,1.1,0,1.5L461.5,259.8z"/>
		<path id="XMLID_137_" style="fill:#B3B3B3;" d="M466.9,257c0.4,0,0.7,0,1,0.1v-6c0-0.6-0.5-1-1-1s-1,0.5-1,1v6
			C466.2,257.1,466.6,257,466.9,257z"/>
		<path id="XMLID_136_" style="fill:#B3B3B3;" d="M460.2,263.7c0-0.4,0-0.7,0.1-1h-6c-0.6,0-1,0.5-1,1c0,0.6,0.5,1,1,1h6
			C460.3,264.4,460.2,264.1,460.2,263.7z"/>
		<path id="XMLID_135_" style="fill:#B3B3B3;" d="M472.3,259.8l4.2-4.2c0.4-0.4,0.4-1.1,0-1.5s-1.1-0.4-1.5,0l-4.2,4.2
			C471.4,258.8,471.9,259.3,472.3,259.8z"/>
		<path id="XMLID_134_" style="fill:#B3B3B3;" d="M461.5,267.7l-4.3,4.3c-0.4,0.4-0.4,1.1,0,1.5c0.2,0.2,0.5,0.3,0.7,0.3
			s0.5-0.1,0.7-0.3l4.3-4.3C462.5,268.7,462,268.2,461.5,267.7z"/>
		<path id="XMLID_133_" style="fill:#B3B3B3;" d="M479.5,262.7h-6c0.1,0.3,0.1,0.7,0.1,1c0,0.4,0,0.7-0.1,1h6c0.6,0,1-0.5,1-1
			C480.5,263.1,480.1,262.7,479.5,262.7z"/>
		<path id="XMLID_132_" style="fill:#B3B3B3;" d="M466.9,270.4c-0.4,0-0.7,0-1-0.1v6c0,0.6,0.5,1,1,1s1-0.5,1-1v-6
			C467.6,270.3,467.3,270.4,466.9,270.4z"/>
		<path id="XMLID_131_" style="fill:#B3B3B3;" d="M472.3,267.7c-0.4,0.6-0.9,1.1-1.5,1.5l4.3,4.3c0.2,0.2,0.5,0.3,0.7,0.3
			c0.3,0,0.5-0.1,0.7-0.3c0.4-0.4,0.4-1.1,0-1.5L472.3,267.7z"/>
	</g>
	<g id="XMLID_139_">
		<path id="XMLID_147_" style="fill:#CCCCCC;" d="M161.9,28c0.3-0.4,0.6-0.7,0.9-1l-2.7-2.7c-0.3-0.3-0.7-0.3-0.9,0
			c-0.3,0.3-0.3,0.7,0,0.9L161.9,28z"/>
		<path id="XMLID_146_" style="fill:#CCCCCC;" d="M165.3,26.2c0.2,0,0.5,0,0.7,0.1v-3.9c0-0.4-0.3-0.7-0.7-0.7s-0.7,0.3-0.7,0.7v3.9
			C164.9,26.2,165.1,26.2,165.3,26.2z"/>
		<path id="XMLID_145_" style="fill:#CCCCCC;" d="M161.1,30.5c0-0.2,0-0.5,0.1-0.7h-3.9c-0.4,0-0.7,0.3-0.7,0.7
			c0,0.4,0.3,0.7,0.7,0.7h3.9C161.1,30.9,161.1,30.7,161.1,30.5z"/>
		<path id="XMLID_144_" style="fill:#CCCCCC;" d="M168.8,28l2.7-2.7c0.3-0.3,0.3-0.7,0-0.9c-0.3-0.3-0.7-0.3-0.9,0l-2.7,2.7
			C168.3,27.3,168.6,27.6,168.8,28z"/>
		<path id="XMLID_143_" style="fill:#CCCCCC;" d="M161.9,33l-2.8,2.8c-0.3,0.3-0.3,0.7,0,1c0.1,0.1,0.3,0.2,0.5,0.2s0.3-0.1,0.5-0.2
			l2.8-2.8C162.5,33.7,162.2,33.4,161.9,33z"/>
		<path id="XMLID_142_" style="fill:#CCCCCC;" d="M173.5,29.8h-3.9c0,0.2,0.1,0.4,0.1,0.7c0,0.2,0,0.5-0.1,0.7h3.9
			c0.4,0,0.7-0.3,0.7-0.7C174.1,30.1,173.8,29.8,173.5,29.8z"/>
		<path id="XMLID_141_" style="fill:#CCCCCC;" d="M165.3,34.7c-0.2,0-0.5,0-0.7-0.1v3.9c0,0.4,0.3,0.7,0.7,0.7s0.7-0.3,0.7-0.7v-3.9
			C165.8,34.7,165.6,34.7,165.3,34.7z"/>
		<path id="XMLID_140_" style="fill:#CCCCCC;" d="M168.8,33c-0.3,0.4-0.6,0.7-1,0.9l2.8,2.8c0.1,0.1,0.3,0.2,0.5,0.2
			s0.3-0.1,0.5-0.2c0.3-0.3,0.3-0.7,0-1L168.8,33z"/>
	</g>
	<g id="XMLID_96_">
		<path id="XMLID_97_" style="fill:#CCCCCC;" d="M86.1,76.1v3.1v6c-0.1,0-0.3,0-0.4,0c-1.3,0-2.4,1.1-2.4,2.4s1.1,2.4,2.4,2.4
			s2.4-1.1,2.4-2.4v-8.8l6-1.2v5.8c-0.1,0-0.3,0-0.4,0c-1.3,0-2.4,1.1-2.4,2.4s1.1,2.4,2.4,2.4s2.4-1.1,2.4-2.4v-8.6v-3.1L86.1,76.1
			z"/>
	</g>
	<g id="XMLID_99_">
		<path id="XMLID_95_" style="fill:#B3B3B3;" d="M254.9,62.9l-6.8,1v8.9c-0.3-0.1-0.6-0.2-1-0.2c-1.6,0-2.9,1.1-2.9,2.4
			s1.3,2.4,2.9,2.4c1.6,0,2.9-1.1,2.9-2.4v-8.6l4.9-0.7L254.9,62.9L254.9,62.9z"/>
	</g>
	<g id="XMLID_98_">
		<path id="XMLID_100_" style="fill:#B3B3B3;" d="M540.6,209.3l-6.8,1v8.9c-0.3-0.1-0.6-0.2-1-0.2c-1.6,0-2.9,1.1-2.9,2.4
			s1.3,2.4,2.9,2.4c1.6,0,2.9-1.1,2.9-2.4v-8.6l4.9-0.7L540.6,209.3L540.6,209.3z"/>
	</g>
	<g id="XMLID_101_">
		<path id="XMLID_102_" style="fill:#CCCCCC;" d="M446.4,37.2v3.1v6c-0.1,0-0.3,0-0.4,0c-1.3,0-2.4,1.1-2.4,2.4
			c0,1.3,1.1,2.4,2.4,2.4s2.4-1.1,2.4-2.4V40l6-1.2v5.8c-0.1,0-0.3,0-0.4,0c-1.3,0-2.4,1.1-2.4,2.4s1.1,2.4,2.4,2.4s2.4-1.1,2.4-2.4
			v-8.6v-3.1L446.4,37.2z"/>
	</g>
</g>
<g id="Calque_5">
	<ellipse id="XMLID_249_" style="fill:#F5F5F5;" cx="300.1" cy="340.2" rx="262.9" ry="36.1"/>
</g>
<g id="Calque_4">
	<g id="Calque_7">
		<circle id="XMLID_94_" style="fill:#FFFFFF;" cx="450" cy="151.5" r="64.2"/>
	</g>
	<g id="XMLID_220_">
		<g id="XMLID_221_">
			<path id="XMLID_222_" style="fill:#4D4D4D;" d="M501.1,141.1c0.3,1.6,1.9,2.6,3.4,2.3c1.6-0.3,2.6-1.9,2.3-3.4
				c-6.4-31.3-37.1-51.6-68.4-45.1c-1.6,0.3-2.6,1.9-2.3,3.4c0.3,1.6,1.9,2.6,3.4,2.3C467.7,94.7,495.3,113,501.1,141.1z
				 M418.2,155.2c-1.6,0.3-2.6,1.9-2.3,3.4c3.9,18.8,22.3,30.9,41.1,27.1c1.6-0.3,2.6-1.9,2.3-3.4c-0.3-1.6-1.9-2.6-3.4-2.3
				c-15.7,3.2-31-6.9-34.2-22.6C421.3,155.9,419.7,154.9,418.2,155.2z M410.2,159.8c-0.3-1.6-1.9-2.6-3.4-2.3
				c-1.6,0.3-2.6,1.9-2.3,3.4c5.1,25,29.7,41.2,54.8,36.1c1.6-0.3,2.6-1.9,2.3-3.4c-0.3-1.6-1.9-2.6-3.4-2.3
				C436.2,195.9,414.7,181.7,410.2,159.8z M463.9,205c-0.3-1.6-1.9-2.6-3.4-2.3c-28.2,5.8-55.8-12.4-61.6-40.6
				c-0.3-1.6-1.9-2.6-3.4-2.3c-1.6,0.3-2.6,1.9-2.3,3.4c6.4,31.3,37.1,51.6,68.4,45.1C463.2,208.1,464.2,206.6,463.9,205z
				 M489.7,143.5c0.3,1.6,1.9,2.6,3.4,2.3s2.6-1.9,2.3-3.4c-5.1-25-29.7-41.2-54.8-36.1c-1.6,0.3-2.6,1.9-2.3,3.4s1.9,2.6,3.4,2.3
				C463.7,107.4,485.2,121.5,489.7,143.5z M481.8,148.1c1.6-0.3,2.6-1.9,2.3-3.4c-3.9-18.8-22.3-30.9-41.1-27.1
				c-1.6,0.3-2.6,1.9-2.3,3.4c0.3,1.6,1.9,2.6,3.4,2.3c15.7-3.2,31,6.9,34.2,22.6C478.7,147.4,480.2,148.4,481.8,148.1z
				 M518.1,137.6c-7.7-37.6-44.6-61.9-82.1-54.2s-61.9,44.6-54.2,82.1s44.6,61.9,82.1,54.2S525.8,175.2,518.1,137.6z M387.5,164.5
				c-7.1-34.4,15.2-68.2,49.6-75.3c34.4-7.1,68.2,15.2,75.3,49.6c7.1,34.4-15.2,68.2-49.6,75.3S394.6,198.9,387.5,164.5z
				 M453.5,168.7c9.4-1.9,15.5-11.1,13.5-20.5c-1.9-9.4-11.1-15.5-20.5-13.5S431,145.8,433,155.2
				C434.9,164.5,444.1,170.6,453.5,168.7z M447.7,140.3c6.3-1.3,12.4,2.8,13.7,9s-2.8,12.4-9,13.7c-6.3,1.3-12.4-2.8-13.7-9
				C437.3,147.7,441.4,141.6,447.7,140.3z M451.2,157.3c3.1-0.6,5.2-3.7,4.5-6.8c-0.6-3.1-3.7-5.2-6.8-4.5s-5.2,3.7-4.5,6.8
				C445,155.9,448,158,451.2,157.3z"/>
		</g>
	</g>
</g>
<g id="Calque_3">
	<g id="XMLID_43_">
		<path id="XMLID_41_" style="fill:#4D4D4D;" d="M190.1,230.1c-1.2,0-2.2,1-2.2,2.2s1,2.2,2.2,2.2s2.2-1,2.2-2.2
			C192.4,231.1,191.4,230.1,190.1,230.1z"/>
		<path id="XMLID_40_" style="fill:#4D4D4D;" d="M109.5,234.5c1.2,0,2.2-1,2.2-2.2s-1-2.2-2.2-2.2s-2.2,1-2.2,2.2
			S108.3,234.5,109.5,234.5z"/>
		<path id="XMLID_39_" style="fill:#4D4D4D;" d="M143.1,250.2c1.2,0,2.2-1,2.2-2.2s-1-2.2-2.2-2.2s-2.2,1-2.2,2.2
			C140.9,249.2,141.9,250.2,143.1,250.2z"/>
		<path id="XMLID_38_" style="fill:#4D4D4D;" d="M152.1,250.2c1.2,0,2.2-1,2.2-2.2s-1-2.2-2.2-2.2s-2.2,1-2.2,2.2
			C149.8,249.2,150.8,250.2,152.1,250.2z"/>
		<path id="XMLID_37_" style="fill:#4D4D4D;" d="M161,250.2c1.2,0,2.2-1,2.2-2.2s-1-2.2-2.2-2.2s-2.2,1-2.2,2.2
			S159.8,250.2,161,250.2z"/>
		<path id="XMLID_36_" style="fill:#4D4D4D;" d="M185.7,261.4c1.2,0,2.2-1,2.2-2.2s-1-2.2-2.2-2.2s-2.2,1-2.2,2.2
			S184.4,261.4,185.7,261.4z"/>
		<path id="XMLID_35_" style="fill:#4D4D4D;" d="M118.3,256.9c-1.2,0-2.2,1-2.2,2.2s1,2.2,2.2,2.2s2.2-1,2.2-2.2
			S119.5,256.9,118.3,256.9z"/>
		<path id="XMLID_60_" style="fill:#4D4D4D;" d="M203.6,203.2h-6.7V192v-6.7c0-1.2-1-2.2-2.2-2.2h-85.1c-1.2,0-2.2,1-2.2,2.2v6.7
			v11.2h-6.7c-1.2,0-2.2,1-2.2,2.2v71.7c0,1.2,1,2.2,2.2,2.2h35.8l0,0h31.3l0,0h35.8c1.2,0,2.2-1,2.2-2.2v-71.7
			C205.8,204.2,204.8,203.2,203.6,203.2z M111.8,187.5h80.6v2.2h-80.6C111.8,189.7,111.8,187.5,111.8,187.5z M111.8,194.2h80.6v9
			h-4.5c0-1.2-1-2.2-2.2-2.2h-4.5c-1.2,0-2.2,1-2.2,2.2h-6.7c0-1.2-1-2.2-2.2-2.2s-2.2,1-2.2,2.2h-4.5c0-1.2-1-2.2-2.2-2.2
			s-2.2,1-2.2,2.2h-4.5c0-1.2-1-2.2-2.2-2.2s-2.2,1-2.2,2.2h-4.5c0-1.2-1-2.2-2.2-2.2s-2.2,1-2.2,2.2h-4.5c0-1.2-1-2.2-2.2-2.2
			s-2.2,1-2.2,2.2h-6.7c0-1.2-1-2.2-2.2-2.2h-4.5c-1.2,0-2.2,1-2.2,2.2h-4.5v-9H111.8z M201.3,207.7V239h-98.5v-31.4L201.3,207.7
			L201.3,207.7z M165.5,265.9h-6.9h-13.3h-6.7v-6.7v-15.7h26.9V265.9z M156.6,270.4v4.5h-9v-4.5H156.6z M138.6,270.4h4.5v4.5h-4.5
			V270.4L138.6,270.4z M161,274.9v-4.5h4.5v4.5H161z M102.8,274.9v-15.7v-15.7h31.3v24.6v6.7h-15.7h-15.6V274.9z M201.3,274.9h-15.7
			H170v-6.7v-9c0,8.6,7,15.7,15.7,15.7c8.6,0,15.7-7,15.7-15.7c0-8.6-7-15.7-15.7-15.7c-8.6,0-15.7,7-15.7,15.7v-15.7h15.7h15.7
			v15.7L201.3,274.9L201.3,274.9z M174.5,259.2c0-6.2,5-11.2,11.2-11.2s11.2,5,11.2,11.2c0,6.2-5,11.2-11.2,11.2
			C179.5,270.4,174.5,265.3,174.5,259.2z"/>
		<path id="XMLID_57_" style="fill:#4D4D4D;" d="M109.5,225.6h67.2c1.2,0,2.2-1,2.2-2.2v-9c0-1.2-1-2.2-2.2-2.2h-67.2
			c-1.2,0-2.2,1-2.2,2.2v9C107.3,224.6,108.3,225.6,109.5,225.6z M111.8,216.6h62.7v4.5h-22.4c0-1.2-1-2.2-2.2-2.2s-2.2,1-2.2,2.2
			h-35.8v-4.5H111.8z"/>
		<path id="XMLID_54_" style="fill:#4D4D4D;" d="M190.1,225.6c3.7,0,6.7-3,6.7-6.7s-3-6.7-6.7-6.7s-6.7,3-6.7,6.7
			S186.4,225.6,190.1,225.6z M190.1,216.6c1.2,0,2.2,1,2.2,2.2s-1,2.2-2.2,2.2s-2.2-1-2.2-2.2S188.9,216.6,190.1,216.6z"/>
		<path id="XMLID_51_" style="fill:#4D4D4D;" d="M134.2,259.2c0-8.6-7-15.7-15.7-15.7c-8.6,0-15.7,7-15.7,15.7
			c0,8.6,7,15.7,15.7,15.7C127.1,274.9,134.2,267.8,134.2,259.2z M118.5,270.4c-6.2,0-11.2-5-11.2-11.2c0-6.2,5-11.2,11.2-11.2
			s11.2,5,11.2,11.2C129.7,265.4,124.7,270.4,118.5,270.4z"/>
		<path id="XMLID_47_" style="fill:#4D4D4D;" d="M165.3,259.2c0-3.7-3-6.7-6.7-6.7c-3.3,0-6.1,2.5-6.6,5.7c-0.5-3.2-3.3-5.7-6.6-5.7
			c-3.7,0-6.7,3-6.7,6.7c0,3.7,3,6.7,6.7,6.7c3.4,0,6.1-2.5,6.6-5.7c0.5,3.2,3.3,5.7,6.6,5.7C162.3,265.9,165.3,262.9,165.3,259.2z
			 M145.4,261.4c-1.2,0-2.2-1-2.2-2.2s1-2.2,2.2-2.2s2.2,1,2.2,2.2S146.6,261.4,145.4,261.4z M158.6,261.4c-1.2,0-2.2-1-2.2-2.2
			s1-2.2,2.2-2.2s2.2,1,2.2,2.2S159.9,261.4,158.6,261.4z"/>
		<path id="XMLID_14_" style="fill:#4D4D4D;" d="M125.2,230.1h-9c-1.2,0-2.2,1-2.2,2.2s1,2.2,2.2,2.2h9c1.2,0,2.2-1,2.2-2.2
			C127.4,231.1,126.4,230.1,125.2,230.1z"/>
		<path id="XMLID_13_" style="fill:#4D4D4D;" d="M167.7,230.1h-35.8c-1.2,0-2.2,1-2.2,2.2s1,2.2,2.2,2.2h35.8c1.2,0,2.2-1,2.2-2.2
			C170,231.1,169,230.1,167.7,230.1z"/>
		<path id="XMLID_12_" style="fill:#4D4D4D;" d="M172.2,232.3c0,1.2,1,2.2,2.2,2.2h9c1.2,0,2.2-1,2.2-2.2s-1-2.2-2.2-2.2h-9
			C173.2,230.1,172.2,231.1,172.2,232.3z"/>
	</g>
</g>
<g id="Calque_1_1_">
	<g id="Calque_6">
		<rect id="XMLID_156_" x="183.4" y="145.8" style="fill:#FFFFFF;" width="236.8" height="181.4"/>
	</g>
	<path id="XMLID_73_" style="fill:#FF1744;stroke:#FFFFFF;stroke-width:5;stroke-miterlimit:10;" d="M261,279.1
		c27.1-3.8,50.1-3.8,77.2,0c0-15.5-15.5-30.8-38.6-30.8C276.7,248.3,261,263.6,261,279.1z M267,231.2c9.7,0,17.1-7.8,17.1-17.7
		c0-9.3-7.5-17.1-17.1-17.1c-9.8,0-17.5,7.8-17.5,17.1C249.5,223.4,257.2,231.2,267,231.2z M332.4,231.2c9.7,0,17.3-7.8,17.3-17.7
		c0-9.3-7.7-17.1-17.3-17.1s-17.3,7.8-17.3,17.1C315.1,223.4,322.8,231.2,332.4,231.2z M186.7,337.2h225.9c9.8,0,14.6-4.7,14.6-14.6
		V151.4c0-9.8-4.7-14.6-14.6-14.6H186.7c-9.8,0-14.6,4.7-14.6,14.6v171.2C172.1,332.5,176.9,337.2,186.7,337.2z M190.3,319v-18.2
		h18.2V319H190.3z M190.3,282.6v-18.2h18.2v18.2H190.3z M190.3,246.1v-18.2h18.2v18.2H190.3z M190.3,209.7v-18.2h18.2v18.2H190.3z
		 M190.3,173.3V155h18.2v18.2h-18.2V173.3z M226.8,319V155h145.7v164H226.8z M390.7,319v-18.2h18.2V319H390.7z M390.7,282.6v-18.2
		h18.2v18.2H390.7z M390.7,246.1v-18.2h18.2v18.2H390.7z M390.7,209.7v-18.2h18.2v18.2H390.7z M390.7,173.3V155h18.2v18.2h-18.2
		V173.3z"/>
</g>
</svg>
