<?xml version="1.0" encoding="UTF-8"?>
<svg width="23px" height="14px" viewBox="0 0 23 14" version="1.1" xmlns="http://www.w3.org/2000/svg" xmlns:xlink="http://www.w3.org/1999/xlink">
    <!-- Generator: Sketch 40.2 (33826) - http://www.bohemiancoding.com/sketch -->
    <title>Untitled 2</title>
    <desc>Created with Sketch.</desc>
    <defs></defs>
    <g id="Page-1" stroke="none" stroke-width="1" fill="none" fill-rule="evenodd">
        <g id="logo" fill="#000000">
            <rect id="Rectangle-path" x="0" y="7" width="1" height="1" rx="0.5"></rect>
            <rect id="Rectangle-path" x="2" y="6" width="1" height="3" rx="0.5"></rect>
            <rect id="Rectangle-path" x="4" y="5" width="1" height="5" rx="0.5"></rect>
            <rect id="Rectangle-path" x="6" y="6" width="1" height="3" rx="0.5"></rect>
            <rect id="Rectangle-path" x="8" y="4" width="1" height="7" rx="0.5"></rect>
            <rect id="Rectangle-path" x="10" y="2" width="1" height="10" rx="0.5"></rect>
            <rect id="Rectangle-path" x="12" y="0" width="1" height="14" rx="0.5"></rect>
            <rect id="Rectangle-path" x="14" y="2" width="1" height="10" rx="0.5"></rect>
            <rect id="Rectangle-path" x="16" y="5" width="1" height="5" rx="0.5"></rect>
            <rect id="Rectangle-path" x="18" y="4" width="1" height="7" rx="0.5"></rect>
            <rect id="Rectangle-path" x="20" y="6" width="1" height="3" rx="0.5"></rect>
            <rect id="Rectangle-path" x="22" y="7" width="1" height="1" rx="0.5"></rect>
        </g>
    </g>
</svg>