<?xml version="1.0" encoding="utf-8"?>
<!-- Generator: Adobe Illustrator 19.0.0, SVG Export Plug-In . SVG Version: 6.00 Build 0)  -->
<svg version="1.1" id="Calque_1" xmlns="http://www.w3.org/2000/svg" xmlns:xlink="http://www.w3.org/1999/xlink" x="0px" y="0px"
	 viewBox="-287 394 23 14" style="enable-background:new -287 394 23 14;" xml:space="preserve">
<path d="M-286,402h-1v-1h1V402z M-264,401h-1v1h1V401z M-284,400h-1v3h1V400z M-266,400h-1v3h1V400z M-280,400h-1v3h1V400z
	 M-270,399h-1v5h1V399z M-282,399h-1v5h1V399z M-268,398h-1v7h1V398z M-278,398h-1v7h1V398z M-276,396h-1v10h1V396z M-272,396h-1v10
	h1V396z M-274,394h-1v14h1V394z"/>
</svg>
